<mxfile host="65bd71144e">
    <diagram id="r0k9jrZdlb4olqsGQjln" name="第 1 页">
        <mxGraphModel dx="1009" dy="619" grid="1" gridSize="10" guides="1" tooltips="1" connect="1" arrows="1" fold="1" page="1" pageScale="1" pageWidth="850" pageHeight="1100" math="0" shadow="0">
            <root>
                <mxCell id="0"/>
                <mxCell id="1" parent="0"/>
                <mxCell id="2" value="" style="shape=image;verticalLabelPosition=bottom;labelBackgroundColor=default;verticalAlign=top;aspect=fixed;imageAspect=0;image=data:image/png,iVBORw0KGgoAAAANSUhEUgAAAuoAAAF1CAYAAAC+v8+tAAAgAElEQVR4nOy9fXRT1533+0md5zj1jRhy5YEZ+SGPleRBXFoU8lxpJUGUVVRm2dCOlcwCpw2CTmRnFUyv7aTFkAn2zGDnzaSp7KcYegvKEzB5McwQuQnYq1Tu4yISlrRWQXRYKJeJPGGsTvxYd1go163Piif3D70dvUt+AafZn7VYCx0fnbPP1j57f/dv/36/fdtnn332GQKBQCAQCAQCgWBe8aVbXQCBQCAQCAQCgUCQjhDqAoFAIBAIBALBPEQIdYFAIBAIBAKBYB4ihLpAIBAIBAKBQDAPKfm7v/u7v5u1q02F8LmG+eizxVT876WzdlmBQJCHqTD+XxzHHVJR8ed3UTpbU/BwEN+FAFN/shhVAa+0PObhtZ5jvPcvYVAt5k8XllJSwG1C53v5yRtnCYyFmfyslAV/oqK0kC/mKLf/X8PcdoeKsv9UyPkBXIO/IVxWzuI/mX99lzzm55/+rZTF0+5XZWS5hJKsdSrjP/kjDvwiwPXrYcL/cTsLFqpmrx0BTARwnz7PNbmE/+2uuyibye8rEAgEXxBmV6j/+2947W9a6Hz1NX7xL7dTvuRuKtRlBQ3UAoFgBnwmE/yfdn6w9wCvnbnKp3cu5p7/snhmYijsx9ndwg9+9BpvvHOVsqX/jWX/Off7PPX/XuLtzv/O8f/p4t2+1xj47XVK/kTLf9WoKMkh+q5fcfJS15sM//oXvHvyDV57+yoLVz7EVxZPT5jKv3Px/He287zj/+YX/88E3LmYuxfflVX8y//yLj9qbOfAW6/xDxevU3qXhrs1szjhmQkhDz9tsfF3+1/j/T/ch3GFFlUhk48o4Wsejnc9ww77eVT/x3/jK39WluGsKUK/eYPnD/4jw64B3v2HN3ht+Dp3/59G7ls4Sz34/3eNd55v4oVXj9N7+B94/19CoP6v3PNn0TYV8jHwq39i4j+Vc1eBE7w0wn4GjvYx/G+l3H3PYspm4/eTQ/gvXUNeUF5UvQsEAsFscPusXk1tpO7ZBgI7e/AM9tAy2EPFWhvbn9hC9XLVrN5KIJhTJgI4u9uxn/AxuchEw8v7sC6XbnWpCmPEhaPNhaNtFq8ZcmHf4cG3+yAdG3VkrYkSCaXCGj13Gq/JwvoHyf4doLQk5e8yMBPDthwmPBX5b2Col86hXuyGBrqes2FUp58+HrjClej/Q+f76Dzfx4FVDXTttaFfmOM2QT9XrkPp7PakCT69wZWTHTguRT76jrSw89Mu9n3fhCZPc5THfLj+sZcfH3IRAsBPZ/04nxzch82QXglSqjL+3Tg35Fl4hhglKNpGCN9gL6NleozLzWgkmcDQYfa86I78WWOk9lEL1etM6JcUPnbIoYuc/pkD9xIZwyo96hy/XUFMBHHt30nLW36kB23s212PacnnpB8QCAR/FMzy8CKhftBGR8cNtj3dSwAYHXKwZ2gI33OdNFdpcw7WAsF8wf9WM+0nRiMfxtzYt9nRnWnB+IVuwJMwlfsMCZKs1uqaVpof1aGKHZsK4T7Yg7tMj8m0GuNSdaRPKElW5cYd23lk6fQn95M3xgmnHCtVSZkt6lNhRv3+lPMltIvV+d1vpgL07tiDK/Vmc4j/9Sbayx10btYn6lWBHPTh6u/lwCEXo2l/9dGz8yXu/Gkrtan1m3QtHQ3drdQund0Gf4dyxLnXStuT5uiEQ0Jb08axsqPY9/XiCXro2++hbz+oVlSzaVMtj63To85TnPGrfnxTwEgvtnW9s1p2+byDps1+mrs7sK4UhieBQHBzmBM7kNq0hebH3TS9HogeCdD37B7uVHfTkMGSIxDcVKZkgpfe5nCXD+PLHVT/UTZJI82vd2GdidAac9G+pQVnxByLdmsXrbms6RmQSRbuTI4TuOSkz+ukb78K09Zm6r5tpiL1i3kmBPnuGh4LJolU9YZWDu60oM2krybHCfgDSYd09QfpejKzEFYiaYxYNmhxnZEw6iuynj8Z9OC+nFDz6hUm7o+59Vz34/ImSivda2R1xoLGz6A81XtlSibkP8vpk730nPSR0xAeduF0WVl/b/7nm3WU91OVU/5lxWdJjW5DM10GE32v7MF+JtLwwpcGcFwawDncQvezteiyVY0cxHPmdNoEbVaZcGPf9RKqnjYs936hZ+0CgeAmMTcLtiVqjH9lxfzzdoWlyY/jyC9Zv7wWbSYXSYFgrpkI4j7Rw+E3XfjGZKAWc5ZBX/eYndaPla4vzfPbmp4muG4w/tEV/DPxHxkPMq5UPbMh6n5/g2Aw9iGM+0g77qthuqonZ+HiUaYmGQ+OJsSqZKLuu+szi3RAvu7Hd1lxQDJRW71MsQogE74+iUqd4QIlakxNx/DuzN04Quc6sTX2RScPWixNHTRErbLyB71se9yODwAV659spXWdpoDnDBO85MPjduE86cQXynZiBaaNVRh196DVailfqEKzRHPzRXohbXEqTOA3fmT9FmxTR3EMJR4qdOYwzg3foGVNhpn1lEzg3R7sZ6K/uqqajmNtmGUX9iM+yleaMJmM6PKZ5JWEfTgabfRcSjkeGsDp3sL6e4ubtAoEAsF0mCvPSqQlq7FsqMD1lsJSVFo6d76cAkE+/nWAzu4BhaVVQpVtpC3TYtntwLL75hRt9vHTu9vGrC7+z8jKHUEOBxkfVxxYbqVrtwXt1QMzum7onIOe9+/E/K1vYKycJBhIWMj1tjrWV0rI19z0DQYoN5gxr9TERVb4qg+PYkJS8Wgtq2N+yBMBnM9to30whHpNA22NmzBVpgh2qVi5JnFHVpEspbkBZWUiyMArTQkhqdZTXbUafYVEcLiH3vNR0brIQO2TDZhi+nYqhN/tYvwuLXqdNvs7EEUecdM3FKB8uQnjA9p09xM5iGfgLAEZSnOUffL3AS6OKA6MeDj9c4krX459Z5LJoJfDr8Z86lMJMXp9EpnUeAeZwJmXaH5uIGFNV5ejLpPg9zcI9PfR199Hj6Sn9untWDcY0RRgLApf83E2VreVZmzfrsa4vIIFt0uo/ly4cQoEgpvD3MnmEjX6tVXo3nLgB6CCR/7SSHm23i0cwD3oZnyJmfUGTXpgk0AwUxaqqYSEUC/7Ixpq00S0hPbB1VmtyDkJj3L2vD/NfUKelDO7VMhBPEMegpIWozb3pSfDIUYVFzF+cz1GjYrw1ezfiQjsUbRVj+QI5BvH+3oPztc70a4yI8VE6pJa6mr0qMI+HH/fRM8FgB6MT3TQ8oQZbWmYDy94koThnbKfX54cp5RJwh8N0TMY+WtouIem4bPYuvdRv0qdLtRkGblEytp3/SH+v1Kk0uyCNtUvXr4eBpUq/bplGkxPdqKTKtBqtWhiCnoqjC98mt7z/sw3mLzBxRMtdJ4DFhqxNdpYfV8p48EbipM+YfRaAD/j/HJ/Cw4vgB1W2Oh6qR7TIsXTS+Us+GSIzlc8WZ8pI9fd9L7iLuILasoXlqaL9MGXaH7Wmezq9ICee8pg8tonxJ9K9tH34nbGpeN01OQR2lNhAsOnI6scy610vdiAKV/0rkAgEMwBc2rfVukfoe5xL13nVVQ92cwWkyZz5zgVwnOsnaZDPsBO36MtND/xCEbRMQrmkpUV6b7RfywsNLP92TbMud6hqTCha0E+/GiU4O9GGP1oFL/fi+eCwm0ENfq1RpYtX42lxog6kwidGMX9s3Z6Jyx0Pm9M+lO4v4WqfhX6qk1Uf/MbLPv4CgpbN6YH8gimsJ+39++N+Cu/6aX55V1YV2bIWCLdGb9O4Jwr8YdrfTRt6Es5W8bzagvN1zs58GQ5Hm+yf7r/ZA+dWQvkw3HQyeoVNvQpk6Cwr4dtz/lZ9qgFyzozemXdf6o4sUSVbMX+VCbh+HMHkkLDh8730LjDQXBNA50/tCb3iSUqdKvM6LKWNcoUhP1OOo/0Mf5gA801GhaUSYAM1z049npwpH1pFGebDWfq4UsOmtruwPGiMhuOhPZrm7D+RiKYazVAHufisE8xKapAv0aXZLyZ/Pgi7kvKaZOEdumfEvhgFJaux7ws5bcPBxh605kSNKvDUmVELUHw4w8JKv5SUdPK9rV52pwcxO1oZ+chP1TW0vmcEOkCgeDWUZBQl4N+rnyiouI/a1AX418uaTA/7cCc57SQ9y3sh3zxz/6TnWx3+2i178Iyg8wPAsEXlhIIBwP4guOMh8KEw+OEwzI3wjf4JBzmRiiAJ0k0ZeMOlj36FC2r8kTcTgFjAUbG9aR7m4fxDTrwDabIQbUG1Y0A/g9g/F+Ts7Tc+DjAlcthxs8doDMaVMh1F/b6UYL79tG8NmXSPw2Tg1QiM37lLENx/3Q1pie2YFqcuPInl5309Css0yo9tY8aMsfZ3C4hX/Pg7Pbg7FZh3LiFtffdSSkQunwxUddTQTxn3mZSXRqx2l/zKCYv/wv/8Gn6rqlAHsXbG12RHO5h+/tnsT3XQX3s2eUQfv8opFrnP50k8PEnic8hFweedTIaBrxNuI7r0U9NP++ilMHVR1pipnlfnp4+7Mfx1OboqgawchO7/t6aFBwaGmrn8Z3OaF1VYO120LxKTTgUApU63U2nVIV6sQSXYs+jxrxzF1seUAFhxq8FFe1Kjenr+VaZZAJnethzyBOZrI5cwecfxajR3gKffoFAICh0eJsK0Fu/B9fEHJdGydgA7X9XTrm9GdOim3jfHMjXw4SvB/jQfwXPb7y4hz2YXhqiYQWEP3ByoLOHty+EIj6Ui3SsXmNhk60WYwHlD11w8tY/DjB0zkPgOlCmRrfCyPrH6rCYMgwScpjwRJigP8AVvwfPeTfu0jpOvFKNGhnfoW00HfQRXtTAsVO2hNVtKkzAfZrjP3fi+Y0/ci9AVanDaLBg+fb6dB/ciTDhT8YJBPxc+Y0P7/Av8azZx9A2fWRTnP0v0XPKR2giWu4Hv4FlYx21DxaQTmXMh/Mf+xg448YzEgYk1Evvx1htpe5RU0GuG6Hzvfz4Z0dxReseVGiXGzHWWNm+UU/RU70pmXB4knDwCoGrfjxeN27vClpPNaCPnXOph1VPOHJk17Di8DZHzr9gx1CfwVt8VSuD3RZSa6nothBDabWVQ7j3b6Y9NRCuQKQlOu7XVqC6U0Nlnsm5PBGOBp0GuHItlOyGU1aBemI084QgNED7toGM1/QfacF2JONf6PtbOzptB5bK7FZO7dYDOHYY43Ul/3MfTY91EnPOUNV00tV4P4GDh+MiWVX1FLuerE7KTx484+dofyJ1o/bR7WyvyZItpeQOxeQhjOdED5mdQQIMHOwk85PLeN6yZ/6e7MOxs50FsWw+JTD+bitNJ9KTMCYTjoj0GGM+fMo/L7Xh6KlHdaaJTS/G7qyj4dWD2JZcwV6/nd6Yb/mDzbz6nDV75pUZIXMjFFS0FQ2axZEbqdRZ+hJJw/ptHYQWuhhVLcO0xszqFbGJTJjgVeVqSYhfvrqX8VO5rf7+YZ9C3Pvo3b0Z/44uOrZmWVESCASCOaQgoS4t1lO9To2rP7/9bVb5JEx4Ij106KZzycHaJ3oypP3SYSkN4X6lkZ2vJ/v0ymN+XCc6cZ04gHnvMTo3ZMnicG2AzraX6LuUcvWJEP7zA/jPD9CzpoVjHYlsOb5uQ2YRsypiywz272TbwWiKtvvUlMf+HvbQ870mHB+ky8vwiB/XSCeuE8GEwMSHY52Nnuvpt9JZSgkN22nc04tfOYGbCOEf6qNzqI8D6zo49lw1moy5q4MM7NvDSyd8KfUqE/rAw8AHHgYOmWh5dR+12dKghX307m7Cfj71lwkTuOwigIFNMaF+3Y/zZ33JAuhcO1WG9vhH6yEvWz5qompvBr9ZjTE5Z8WKBs6dfwzXPhstSUKplq5zLZiURV7ZjNfbTHionbU7nYCJlrc6eKRSldyyp9EWklAK5IUaDI+2smxJLz2nAoAa08bHMN13Z/TcT/Ad72EgJsCWW+ncaWHZ4nLK1aWMD/WwxxFghc3C+hV5JlzXgwSvA4QZ/fgG5YpyqL62mYbFTtqPpPtLax80xydikx+dxa1sl0uMmDOqQYlynRl9Mdk7MvEpELqI60xUyEkmtn/XnL6J0FTy+oAkFe5brq1qYNMDdwIy4+cVGUzUJqzfTWxYlGy111K9bVPErST1NwLU60zoY/7hJWqWrV2L9kQvyc47c0l2H/wZMzXJeFARaazWUJ4v0hWQKs3Ydmew5k+OE7yW/C6FLrlxFT15lfEcc3Kx6v7crmQCgUAwBxRmUZc0rK7v5ni9hgqNKrtsnpKRp6TikyDMd1bYGPLa4LqL9nUtCr/NAPaGnVjbOhhsilg65aCPvu4m7GdiA0QYV9se+pY7qK1MvmzwTDtNu52RQbaylq7u5ogvpBzE3dVE01uR4Vce7qT50DKON+qRAH2jF28jBF63semVJNsYNy7YadnrTrf0TgXoa9yO4wMALbXPdVK3NprBQQ7hH+hh78tO/JUahQVaj+2MF9tUGNdza2npT1wusH8bOx/voKO/Ge1CQA7ie9NOU7crLrzDZ/aw5wEdjsdSIgyDLtobW3CORMvyShfNJg0SMkG3naan+yJ1MuGm86kelp1oRp/SpoKD7ex8zol/QkJff4AOmzEifOQgvmMvsW2/G3mlFi3kmGgpMaJdBOqVXXhrUIjqKJWKCU+MEjXmzZvRn+hUWCivMPoxsCT9DuNjkb0vK7Y1UHtvsgidbltQMql0Z1hYwf1r11Ou8vHWqQAhQrhP9JA1dO9yLy1PpFv9fbs9XKrfR+tWU5ZMGTKBC+7488thGVk5YSgtx1hTR+2ZFvqUzsKGZjpeTFhmQ8OdPP50X9yaavx2Cx2PzWFmjakwo143p8ei9/t+A+vTJoSR+kyS6qVkTVM5mRTQK6E1VfPIBg3SVBjf9dNxoS7pzdRutESFukyw35sQ6ouMrH+0NpKhRQ6ywHeIgZHo7yqZaNhWm7RTqtpQR9fJLagWR91CJgL07d4UCRSNUWampXsXj6yMBsBOBRlo28iewdncdnQWmAoT+lgx6VWrk/OsF4kcDvLhNcWBJRY6/nZ66YElqZyKxX9sA5tAIPg88KVCT5Q0OrS5RDoQ8vbwxCM22l93E1CqIjmI62A7PYOB+Lben0sWVlCRZBjX0tDjoGFNwh1B0uixPneM1jXKmvJhP+5JFs9jTl6KCTMqaNjbkghYkjSYmlqoVQwoo0f6OJuiNLXL9ckHRnppacxiXbvkxB6zJD3eQkuVIs2apEZX00rbExWwsJQFqd8tUVGxJDnsUlt/EMc2U0SkR8us39rJsTZTUhvx7T+OJ+nBQzhfjIl0qNjWQcuaaJafEgnNmmZaHlP6HvTSN5z84MH+JjY+68Q/AdLGfRzcZkxYQiUN+icaqNeAURst8wobQ14v3lOtmJQXWtXKoNeL1+vF6z2ARfHbqr6iTz43G0vWU7tOecDHwPlghhMDeN71AyZsNSnhf7PQFkCGTxUVXXZntE5nkEc9el3Pq72c/dfMok6+5qKvV7FOkUHEli4x03LkOB01Mcu8hHlDYW5Nc8Xk9QBD77oi76RkxLS8PLM7S4ovd2lJ6TQy08uE/z3hM/6nf16usL5PEg4prMgaTfbMWLKcMhkASlRoliR8t+XfeRg6l3LOhIvO+io27+5h4EIoeSI1n5gME/xYUd8VFajkAAP7ttP0ihNfqLiJxeTYh0njkKQzol+uQ7e0wH+VGsoXadEt1aGtVItMZAKB4JYwe1lfpkJcGR7CPzaK/5UmnL0mbN9v4LF1OlQfX8F7xknfyGn8wS7aNhvzbgU9PylHXQmJNALlqBZmOK1Eg6W+HsdwTzwbgfzrSwR2GuO+4v53HQrr5loMy1OuIS3D8DXoG4wdcHFlBMwrchQvOIpm5zEcG3WootbpPYMRNRT6KJCYKIwECU6R5pJSvjjF5K/8mzopsSHlC9PsywBovtlA/SE3PbE6mnBzaQSMS6OfP3DiUAiJtYbUnBUSyx4ww1sJD17X1QCsi05KrrvoeTmxYvDIGmOGyWM5mvvImQJv9lBhfrQW6UxfvEy+d88S3FhL0pzu8hDHLoP0mJX1KTELs9UW5N8nEgBKZaWU3i4lv+FlZjqOdVC9JGKpH/h7hVV1VQvHX4xaG0MeOp/YHreA67dtz2BtBuQgpw++hHMsflc0i8vTXEAAKJEZ/yhqL1/yCJaHbm0eavl8L7FcMJLswV6/jcCzHTTX6JIE++TkZNIEe1r7QExNEr7+v+If//BJmBsToFYBUzLjCiuydJcK1bSbrUzAPZDFLx4CZxzsOTOI5dkW9LMh1sN+nPsP487gGpe5eONcvKD4fOE4L/2tLzExkUfxKP/u7qXzhzfwXAoBHtxvObH+7S7qqnQFBHbKjAdGUDpcVSxRFx4QGvLQ88PtOC6BdkMzzU/W5kgNKhAIBHPH7An10BVcQ4plyzE3jjY3zt908vpuM9ufb2X8/2rHtX8724KtdDRaig9IkuVpbC5yi9CtYC0kNpwJ3lAsoQe5cl5RV6u0GdIEqlAluQbL+S1hq3bR9pgu6roioVnTgmNN5E9J0QXn2tn4ly4esa3H8qAZXXQAUm/owrsh/6PlpETHiq8Dr8cOjHJD4cMe/CePQu6b0GZw3VelTAJkhVIKe10MxK+nozKjz6ia6le8VBdf+mkhGaqpLeujN1auS07OjtQmuTr5zzkZpYKGb6ZOLGapLUxNEp5ImA9Lv6xKt/xOBDg7+DY31KUgh/D5FRV71cvpn0OFBJPhES4qFgXCE5l3DZU/9uH+tcJkuXA1phVqfP0Zzh27iDsqwoybLAUFWMfv/8EAx4dvoMuZRz2ZUd8QzpMBVCWlxDbS+TDtLBXVbQepKz9NS2Mvzuc2c8XfQceO6oS1P7Wep9P/TIYJBhN1Herfw6bAh5F85HfeYHQs8XbKQ+3s/ImKjm1mtMX2zuEruId8eU4axbmvh0D5LLi9qLToddD+nCv/uVnK4hvOEQgrB/Ao/cmnfPS2PUHw02N586DLQQ+n300u140RD6dPBjNPJBVMTk0y7j2MI3rvwCk7TadOU/tcB83rtMKyLhAIbiqzJNRlAt7TcX/POBozW6ruR1UC0lILu/aOMrrDgf9kO09cG2VfW33h+Wmv+3A828RbEyYsNev5hsmIbtE8Fu0lFWgNgDfTH8cJKI+nBDXGKVOjW14OVHD/KgPm7AbvCPdp0zKIxFDfrUUiYYmWx9z0veiOWBWjWUVMVbU8Uq1PD6grkgqtEbLY9cavKY+7ad9gIP3JJdRLdZTfDhXLTRjWJHzcA5eVuTLKKZ2Gv+msU6Jn/dYKeg/GRIefY2f81NZHVwtkD84jo7CihepUa/lstYVPJ7kRToivBQsjG+TInypFdo5sI2MuHPsyCy55IvNGR9JiI5se1+M6dAVdVT0N26wYS86SFjY6JRPwDkVaRKUVa1XhW6/L1wawN++JWO0HRuj8cTPmAsS6fKEP+4Xc56gfbaWhWofmU4lNq3rpPAf+E3uwhW5w8NladAtJc32ZjkiTrwe48s8pBy852PliOQcbKxhJ8VXzv95C8ycd2HekuLblITzi5ZeZAiVVJmq/FqTvVPRGsh+f0jvrXy/h6u9DuqScygTwDDm5c2Ew+dwkJLRrrHRgRqXVUp7vXZwI4OzYQ18sOPbeWjqesWT3Gf90kisnW2k/qRTzKlR5VsrkkQFeatyDM6XcoSEHnUN5ypgVP30vHka/oo1qEVAqEAhuIrMj1MNXGDo+kDSYS2taePXva5Os5mrDFtp2j/DEiy5kr4OmbUFaX9yFZXl+03p47AoXfxMmJA/guDSAA9BtaKDuu5sw3zsfc62XJierWa7JkSZQkcpvrlhRy641fbQPZ5Bciqwijpf1NBw8iG359Aej0hLld3VoMrkHRbEe8tK8crp3GiF0HZgH6Tt1VZvRH0wElY4eOY3vCR36EggPHadvAszfXk+W3D8KptkWpmQ+URi377w9iKt/AEKK/OQGG507vkFFKTA5jnt/Ez2xScJyK51Pr6eiDPj3ixze3Ykr+kVpajLiG50qUiU1xm0OvNsUxzKIusnwFdwDkQmaSgOBoT7Glb7zU5OE/BeTVn0+9J7mbRYw8ouehGvNSB8tL5bjeM6WFFCZCWllLQ3VlfFXUP7Yy1HF1vRSVQcHn4pmeZEqWF1txn4u4rMeHuqkZWE5B3auRk7K+iJROg13qsmPrxCIrraoq5rZwmHsg2Hk4U5eKjHxSSzgUW3C8pUrOIdDjPbvYdukjfXXC7R8T4W5MvzL9EkSwJfL0VebGD3TiTt6uUiW8SgTHnq7UyfWMp4jWdJEKlHrqX60wNYahnLl76bSoL1Xl31ldSrEuGI/V9BS+2JXeg79FKTKanYdVKHeuxOHN/rAJXpqt1WTmnk2G59cHaDnhGJ1Qm2i4dm6pBz7AoFAcDOYBaEuEzzv5C2lJUdlZteOR9I74BIVuppm9gUCkSwWwQHad8hM7m+lNo9YVy2tpeNQKS89285AdGDzn+qh5dRpLBl8S289o4wqLHqSYRnZd1f3EwiCPr+Kmz4lGiz7fo725GHsjrfxjWURABM+eva9TfWrtQWIysyMBhXDe5mRZRkyoMTwB4Kwctp3YnxchqXzYPBc8g0sqzrxxfzvJ/oY8Dagf3Cc02+6oKyWTWsLUQnTbAtTN7gR9xWWqCiHwPE99H4QOVKxtoHtj5kiIj0fZRUsM6hxDS9Av0LGd6KFmiEjtTYb1r80Zsn+kg2Z8D+5OB3tH8LnerGnBjtmIKv183wP9pMGurZmyWUepUK/Fsujyjzq4FYI9dISiQXxupAoX2FmtcoVn5yM+q4wHjbCpFKolyKVFJksdkomeNkXDxT+RpUJ4+/cMBh5R/xDieiEinW1WNdcxDfsIACEBh1kyL6fmZCPgcFEikfj8nE8lxMzN1XlN7BuduJ+NYh5xy70l/diH4r2AWVGrPUmpEuKFJJIGLc2sBu/f0YAACAASURBVHZhkIH9ffhiLkATn9y8YNTJG4x+rJi+LdRhWF5e0KqGpDHR8MoJ7n/7MIffGcewbRf1azIL/PA/uzj+iyCVf2GJG31CwyO8dUKxIZjezNqHxKZHAoHg5jNzoX79CgPHnAprmIrqp7IEnwFIGoybt2MZaolYysIuOp8CflyAWF9uoa1bxYJdLfR9EDsawPncEwSvz7MNKcLjBOO+1BXUr1NanUpZoEFhffTgvhTGopnjlYESNfqNLTg2tiCHgwTOncU5eJi3h0PJrg2X3PhCtWgK2K8onTDj1xJXq9i6Hr3iNylVVaAMSvWc9xF+NNdqQzKp33/be4WWVXO6FlEgaszfNNMe375epq//LNtVIxy7BBXbLBgzvhKz0xbkiRDjcaFeQeWfl3OHQpSPDvWwZ6gn+wUu99KStilTCF9sshny0LfPQ9+7VrpeLmITsk8nGQ+FYZGJ5t21yL86zbhmGZULkyvjE7+TnpMJe7B6rY0tD5ZnEFallOsq8voZF4u0WIfJAK7Y5KCiApUE40mbvEmU5sijnpGJAJ5zUcvsSguWByooL9VRgSdt2/uqv9BTsQSMiyCQ6kaYE5nAcB+no23IuKMZ62QPnssK+3qpGuO2gwxuLkVdNo7zWcXX7zVifrQWVZlbIdS1GNdaqF1yhWB/H76Yu0qplDU95azz+3FGlOkVFxWWVz1OmQbT462YHs9xzpiH46+003M+DK+7aXilA5tBzeTvbySvEEvTyfYjEAgEM2dmQn0qjH/wMD0Ka7q6ZhcN63IH+kia1dR+14RzX9SaFHLR2UhErK/ILVCkJWaan+/gRsMeBuKDmYxnfwc9mgPsqsq9LHqzkC97iUk2qaqJTUm+yToM6yQ4khgKXD87jn+dDd1cDYIX7BgaJRzDkd01JZUGXVUtLVW1tMhBXK9sV2zco5p+zK58Be+vo/8vq6ZpY3JWF90Da5HoTQyCZw5z/INqbEspCK3OBPF8HSCf6MO1VY85jyvEzUC1dhO1ZS76YuJu0Mme33sYRU9LVWp2mxiz1BY+GScUM6CqdNyzWEVQ+X2VDpNBIXCnwgSGPQTi1lEV6pIwoSlQLTdh1JRGNqDxufEpjJqSakFRVkXpdhXLalo5XiVDmQRrMie9DA2P8NZJf3zCf49hPbUbb2JmGKmCZQ8YYcgDqLH8pZGKMhif/CTptOI8XyYZv3Qap5fINb9djVYlIS230LQjzPF+J56oEFVVbeGR5SqkTzVU3gcUIdTl4Fl6HdH4k5UNbK/Rw8kMJ5aoUC8EJibjOfd162xs2WxhmQoyhnWWLGCBCijTYX5kPdUWC7qbFBciXw8QUAh16e57KE+p/9CFAX75kUTF3eWUlxUppT+9wcUTHRGRDjDhoadxD/y4BVM4nLTvwp8uVM365FAgEAgKYUZCPfzPp+npUmyhsqSWXfXmApbGJXRra6k97k4EFl130fmCBu1/b8aYx5IrVZp5anctl57uUwwuozhfexvLqgb0N81lfZxwmHQf6akgp49F0vVJS20cfNacZjHWV9ejPdKTyHk+0sOe/QaOZdjIZtaY+CSLr7GG1WtMcCIqgFfoWZanDsc/uQEZQleD7/ZGhGqZDlt3W7qAXrGe+speeuK7LQbo+Rs7hiPN6AsQAJKhGqumj954+scB9uw1cmKfJfMOqLk45+L0B2asS1WELzk4+rGFhnXTWkaIFs6IZWsFffGgUjfuYaCmjkdyuP/MRlsIjwcTRvl770GzsBRFdm4qNjTQ9rQpseKUmp7xwTp2VQXp2tvHaFiFYfMuapeDZ7+N7UeiJSsz07bbir6IKopPP8rmw/Q5FxLar22i1jXJDXMzDSYNEqGklJewACnHDDZNyIUDuIYim3dVbNxFXcz1QqXFvLGWoDcm1I3UfTu6U2lJOcv0Ojjnh6VmzLIL1wjZmQpx8cThyOpkmYmWpyO7mubM/VKmZf3ufla3laOJr2xkcIUrKQWVjk0vD7JJlcjVfrMIfzySFPKgvU+TNklULZzE27iHzglmB9lDz852rqxInraoy1Ui24tAILglTF+oTwQ4/TN7PDgJ9Nh21xW+xfIiI5ZNJvr2KYT+B710/MyIY6cpjwuLhPoBC5aVffQoMzuEQoz/Hgr2o5gxfuxP2LjR0coWU3Rn0pCf0/v30H5OQvf4PrqbsjzLUiutW09jO5JI+RA4YmPztWZaGmsxRjNbyGMBLr7vxPFrLa37LLn9xkeChNBnzPwSHh8HBmjaMklzSx3rl2siA++UTMh/mp5XYlZqLdamR/L6p/tf2Yztxj5avx3d9Ci6u+me59xIS63ss2dxjyjRYd1j5XS9YmOmkV5sW4M072ym1hDd/GgiRODSWZxH3Gif7UxsRiTpadhdS19jIm+5PNzO5sYQHTstGJdENiaRQ35OH/wl5Y0NmGLt4cuqlKbhxv74WuyAtKaVE/tmINKj6FZZqDjYo5hAStRWZcr1rmDGbUHmRnA0fk+dwYC2LFms3QiN8qHfz3jsjZ8cJ6jcQCbg40qoEt0iGL02QOcTQcb37eL+T6dVDZ9LpCVmWg4ptqKXk1NegtKvPR8y/l/04rkgw8oG2p80K7IpyQTOHKbnPIAay3MtiZXEEhX6x/fhWDGKSluO/5WzuEayB5SGLzk5cMQPaLF27OKR5SqYyr0HL4BqUQHuZlOTgIRKPfP3omimwoxevqh4j1Rol6RvSiUtWY1lazX45VlyyZEor7wHzie7ianU5cL1RSAQ3BKmJ9SnwvhPHUgEI6HGsreV+geL6dAltF+zYHG4cSqW1kdPOfFsNkY2ZcmFSkv1X1Vz6IIi24xKddOtPkz4cDy9CYfyWJkO6ys/p3lNrvqQ0O9w4FA1sW2/L/4MgSE724fsKeeqsOzrTxbPUzKBqyl53cbHGZ0AdQbLtBwVHPIHTjrrnXRmKlKZDuuL3TSvLKQSZXyHmth0KPmZdI938fNsk5PYWSubcby6gKYdPfhilrARF/YdLtKevKaT/pRZg7SqhRMvTtIU380Twud7aNqYPLhWbDuGU6lGVKup3apl4EhKvZXVsq9DYZGfkgn9kz8548U5HxdD6zHn26lr+Vo2L++h83L0s6YeiyFffc60LYQJ+K9EP1RgfKACVcl40rfCZzrZfiZHEcZcOPYrD/hwPGenWncjT9nnJ/nyqGfODJ/KJJO/T9ruqKhNtEYv+GChmdaWTUmrEOEP3ubAjyMZZow79kVycyu/WKZB/6AG5CD+XOIz7Mfp6MGHmuq2DupM88Ptr2gm/PTubuTo9WUYV+i4p6KcOz8dYeCIMofNMvT3ZdhkrUSNqb6jsF2ECyXkwZ70rqipWFj6+axbgUDwuWcaQl0mcOYALS9Gt99GwrxzH81VxfuTSovvx7xWjfOEQqlP+LkSnMwv1JHQrKql3jAQTzFX8aCRe25qpsYKTFU6xv0e/CNhQIV27RZadtoK29ClRIX+CQe/qvJxur+PgWEPFz+IBnbGc5tbWL/WqNhuPcTA7ir2ZBJdl+3Y1kSEnWnvIF0bEupAXb2LY6VnOe0ewnP5SrS8TDuHesWaanTjfjyXA4QBVaWZLTt3YStwsqZaYcNxphrfwNv0DbrxXPITmoBIDvX7Ma6pxlJtxpgln5pmXSvHz9Qy8OZRnIp6kxbpuN9govqvHsOyMrUsEvodBzmw8McceNOFb0xGWqSn/vlmTNHJja/bgO1Ipjs6aalyAvlSSmpZXaOn83LEnq3fWl2Yr/m02kKU8ChXYo7ky6sw69TAOAWj1mFeY0K/Yhk6bTlht52WQz647mHgfOGXmVPCfpzddlxfttD8ZHV6HaSQN4/6VHYrdZxJmdC/Kz6XlaP6ciGFjaGn4cVdWJYqChvycLSzE9eEhHFHFx15stfkQg4FuDKixvT0PnZ9c75lvSqCKZAWLiB0zs3AZXfmc1YYWXaT9s0IBy/hSXI3qkDzZ/MxBbBAIPgiULRQD50/RPuzMd9wLZa2DpqnO0iUqFm2dj3aEwo3CP5AeKLA3MEL9Vif7YJuO2+N6tm+6WZnfanE3NSJZYZ5vCWNHss2PZZt+c8FNdUvTmPXTSkSPKqrqi2+gBmo/PpTdNbMcElc0qCvaUBf0zC97y/UUb2tg+qC6i1KiRrj1g6MWzP/Wd/oxds4veLE0Gx04N04ve8W1xYihEe8uKMb6phq1rNsIRAmKY2eapUF44gTVxAqVpox6PXoV+rRf2UZWrUEyAQvnMX3cRiVRo8OH/6l1VjucuM8n9+VIuvzTPubCuQgrv17aD8ZADyMfAL2H1Zn3ygHQK3HpC9P+I1f9+PyKvyOp4jEaxDG338YZ0BCc/c9aCs1lEf9Wyb/zZ28M+ad5ZTn8LWfTElbaH62FatB8Y5MhfG8acdxoQJLW2davylfDzIuqyhXF+YPLVVWs+uQHtTpvtufK1Q6avce55GmAJ53D7C325W8kzIqqjetzRs3UxRTYTz7bTT1S9z/4P2s+IqOe/6zBvXtITxvHkrOR78k9o4IBALBzacooR6+3MdLux0R31eViYZ9bVgN6hkNxmqdmbXLewnEXAUop+Kuwq8oLTFh22fCNoMyCASfW6ZC+H7hjAiLe63Uro2tbE2CQjguWGJm194GdqFCvTDD+xUOMNDVkpTBiQ8GcCrPkaS8AlImWbDKk+N4jrVz9pqKe7Qa7pRK04Mus214VFJBKZOE/E56Tiam8qP9e2iRoHNHwrIuTybvnqr95nY6dijzqPfR9Fhn3J3pT9XRLB6T41wc6qWvgNzuaDSU5+qapv6gKIOUniKmRMX9m3bRtaYC44rUflNm9Ew7m170ACq0K/Vo75IJuBVPVSKl1Z1qUZZokunEFiRNNGT+MBf50pXXTN31Va3F9O1mnrrqYc+peAojzE938dQ0VmxzMjlOYCSAfB08g348g9lPVa3Q513BEQgEgrmiYKEeutTHS09FditUr2mgrXETpkK3ecvFQi2r1+pxRF0FWG7CMBvXFQi+AMgjZ+k7OQqosTxZm8iYNDXJjdRMGCp19hUnlRbLMwdQuwcYeNOJJ5ThnCX3UFFkEIhUWo52+Scc7e5hoIjv5dvuPXBiL4cf0NMWS8c6ESbhTa9Cd195sqiVFqBWQ8VXatn8lxa+YdJF6qJMS+3LQ6y+7MH1i+McfctDpkcH0Jv0uTNapUwWMiEt0mfJQS+xYLkFW9UkvYM+AhfcBFJPKVNRWmD1T8oFrkoqSN3ISJ71QOLJZPE/+Yf0WAFJg7FmE/pBB6MmG0/VP4Z5+cyMQRkp01K7b4jVfg+uE7309Puy/HYqzGv0uSdoAoFAMIcUJNTlEScvNXbimtRjfW4Xdetm0x9SxTJTNcb9PjxosW57LLJ0LxAIcjMV4uK7vbhlUNc8lUj/BzAlI8eFuoROm889QkK91IhlqRHLE62RiXljZ3ynTtBSuzm/bzhTcrLgK4Hy+0xYNn7IyMJlVM6S4imVKlhmUDxvqQrNvSburzZjenA1Rl2yuJOWVNMxmMVhTFKhWWnGutKMxTLA4Rf20Hsp5ZylVuq+mdufXJ6UFRveF7+LqXp5NQ3PVVP/tJ+zx3vYc8idLB51y9BmWg1JLwnypOKbtxcYCPlpYSG202YKZOUtZDnNXQhAbWjAcX6a7nDFUKJCs9yMtc2MZesA9qf24LyWfIpq7XZqH/ycBukKBII/CgoS6pJmNdbdHVhXmNEXGm1YBNK962nZX07wrvsxLp0D64lA8EeIfO0sx08EoLKWtnpzciCwSouhxsJkuAJjtQVzmqtFbtTL17PpMSeuQ35UKy3UPVlXmGCZmmQyLsZ0rP/aMlQLNdTu7ijm0YpGvaqZY6tmfh3V0mrqmoJ46nvifsrSSisdexoK340V0G6ow/JAhiwlBSCpdZhtu9j1zxtpj2bWkgw2OnbXFrjZkIRUEv2lyvTU1lsKMH4oXaW0mLc1590pungmkX+f+KRbpafiJm2elA9VpZm6J6s53TYQT5Jg3NpGyxMFTE4FAoFgDrnts88+++xWF+LzQwhnYxXtcX9WE62numYcTPp5INTfRNXeREYGU9sgXTMNJhXMjOt+nI4+QqaGgrPtFMVUmNDHMqrF6sI3ewkHcP/ax6R6Gfcv16H+PIqciQADrx7mbKgc/dfWR9xkCpnlhAN4zvkJL9ZjXDHTAE+Z4HAvvV4Jw7fWs7pIA4YcCjIaLqV8ibrgcsghPxeDEst02rlJcyuH8Jw8ysDoAox/Ufzkcc657sd5rA9/iZ61OTJOCQQCwc1ECPWi8GE32OiNf/7iCPXUtIVCqAsEAoFAIBDMLV+61QX4XHF9nOREdSMEroYIFx+39fliKsz49eRDI1evEPqjf3CBQCAQCASCW4ewqBfCmJOmDe1k2YojwqpWBrst/HHZmFNdfTLxxVlVEAgEAoFAILiZCKEuEAgEAoFAIBDMQ4Tri0AgEAgEAoFAMA8RQl0gEAgEAoFAIJiHCKEuEAgEAoFAIBDMQ4RQFwgEAoFAIBAI5iFCqAsEAoFAIBAIBPMQIdQFAoFAIBAIBIJ5iBDqAoFAIBAIBALBPEQIdYFAIBAIBAKBYB4ihLpAIBAIBAKBQDAPEUJdIBAIBAKBQCCYhwihLhAIBAKBQCAQzEOEUBcIBAKBQCAQCOYhQqgLBAKBQCAQCATzECHUBQKBQCAQCASCeYgQ6gKBQCAQCAQCwTxECHWBQCAQCAQCgWAeIoS6QCAQCAQCgUAwDxFCXSAQCAQCgUAgmIcIoS4QCAQCgUAgEMxDhFAXCAQCgUAgEAjmIUKoCwQCgUAgEAgE8xAh1AUCgUAgEAgEgnmIEOoCgUAgEAgEAsE8RAh1gUAgEAgEAoFgHiKEukAgEAgEAoFAMA+5vdgv3LhxA1mW+eyzz+aiPIIZcNtttyFJEgsWLLjVRREIBAKBQCAQzJDbPitCcd+4cYP/+I//4I477uC2226by3IJpsFnn33GH/7wB770pS8JsS4QCAQCgUDwOaco1xdZloVIn8fcdttt3HHHHciyfKuLIhAIvnD4sBuacI7d6nJ8kQnhbDRgv3CryyG4tYh28MdEUUL9s88+EyJ9nnPbbbdlcEvyYTcYMBT1z45PeYkxJ02px5R36DbQ1B8qvKAX7On3uCnE6iJdUEzrGRqdJH0jTz3dVMacNHUXWJIxJ02xOrlgx1Do924VY06aMrXTmz5ATeN+F+wYDEW2tXyl6G+a1et94ZlP7/Ec4+s2RN73MSdNqf1ZPpT9Rgqh/qb0/jEbmfrSXMfnK0ntRojlwomMy5n7sJtoAJjhuOLrzvRdZtyOi/ZRF3x+sR7y0ryygBPHnDRtCOQ9LdTfRNUZM4PdliJLEsLp6MXUNoi+kHMbq2g/V+QtopjaBum6+yiG+t7oESsOr5fm6V2uAFbTdihAlcEQuXeNGojW1V530VeLX+OCXfEMec6F6G/YjrZtkBCgLuKeIY2Z1qs2DI2tDHZbivruXJJUh6taGfR6p1E2H3aDjdw1mcKqHPVw4Sjt56w4ugu8luJ3dO+twrC30EJYcXibM78vF+xU7QXroUKvVWwdmGg91YVlUeJ+OdviBgPtGQ7n7n8iZQoo2/CsEX3erQ68jZEa9HUbsB0ptowRpvsuQ/I7mq0MhXw39n5nLcU5Q8bf15RWvz5cR8B6SA+L9LSta6KqkUifnuk5FXUIEHrfhXtrHV2LSCHE2TNurLauues/8tVBRlLacgqh/ib20pbUbys/F3Z/K3WKT7316b+Fsp3d6nYQac/a7P3LTSDUf5herDgy1HOo/zC9q8wMZvnNZn7v2RhXIugbB2m9WoWt25z0niSYXj8nhPpN4bf8xPQ93uA7/NT9fb56i0qRqcPITnJnE70CNkMg2tEld8SjWa+TQ2ifyydUop1qt5fkqUDkmgFborML9TdRNVKX5eVoxuttLngCMiMWqVEvasbrNWM37MX5kGJQSBnk8uHrNnA49mFl5Bl83QZsxK6TXg+Q6HgKnpgBLNKijf5XvUiPpXsQGvdydsySdVC72ahruvDWEBGKjpldK61uLtgxOLRpgjwyGY19yi5wbYZ8b5YVxyGw1QdoPeVl9fuJ9qpsu75uA4crI5248v9ZGXPSVN+b9jw5BQZ6mmcyWY22xXR82A2H0eYQQjefEM7GyMDoVdSFvtGLt3F6V4y3wxkykzKwyEKXN5OBJHOfkJULrohAip6rrunCMWJgb/9qulKeM9JOox+SBKIbQ0xoxia1Y2dxnQN3mlDMLZSLJ8cENo1I+8xK2oQ3xCha2FuFYSRD353pN8gwxuTrh291O1DXdDFIE1WNzltkmPFxdK8bcKf3o1tbab3qhnNuqgwp0/+4AWUaxjyF8WWm40rGifs5W/ydiBgLo8fHKtjiHeRsY5Y2lQUh1GdEiHd+UMOvzP28/M35YnfMTlHCLU7kJXDdZyUuNjbY0Z7SZuiIU4R3VJgmC+25tJwVSUbLoPIZFINADitiWgcSHYyavV0Zzo48P9P6LfIR67BMtJ7yKgbDIjqyVGvoBgOu+fBb5SBzR6lol7ks4kWRInAv2DHUB4oSHl5vtMwzLguJVZMMbUldU4fWUEUTc/Pb5bQqZ7CoT6/vmTmh/r2008pggXWQ+lzuJOEw2yJzhuRa2chgSU23poNvWLGyGZ+sesnUc6WTIpIVQsf3ZqRddil/8zEnTRtciXtnsCSn96Xpx+ekLUXrMvnaavQ1zXTVmLEbbBiupvYj2frVfBb1YiYXhZc9IwW2A3VNHda9No5esNzk9zQyke7FiuOUlsMbXJgV71iov4mqq60MnoK9Wfo6UGcw5s1CyQodVwqZuMdcZhapUUPR5RVC/abwVb7vdvP9W12Mj5w01Re6VBjrTEYJnAPtOi0BArByC61to/CmDRRWqoKsf4Cv25Z1iSs7WTrEtE5IYdkh0SGlDgiRwddEa5sWZaeZ9AyplpFMVsSMVtjMVht1TRdegDEnAcBdwOpGpg41F3FR4o2Vx4fd4MLsbS6gY5jLCcRskN4GIoO3ldY20qwrcUvSLFjfs+Eb7oWtjmThlsUyn/kZlO1V+X/lZDH6/9TJRkZhoURPs9eBfY7EeubBab5Z1COWOuuhwt0vkqxr9SQEVQaRGekryD0Jjv5u5FzxmyYZVzaKsKiPOTl8BLSHZnkid8GO7Worg3msxEmW5GzvTc73KUpBLjBWHF5z1vIW8i5hsFFlCChEdgaBOA2L+oyZaTsAQI95K9iGfTSvnE4bjfVtRU5CYq6D0e90HQpg2GBH621GT4izZ6B1jwX1IujyarEbDNhntT5nZ1zJ6r601Yr1SG98rE+diBbaNoRQ/yJxd6ZlsoSYy/hyjQUIYKXuIaJuGGosD52laa8J86niOvhQf1O0MffmdRXI1IATx9IFQarri9JtJDYgpPniXbBn9KWdEWMBAmgxZxMqwQDu2baoREkWT4mVi8LuU4F2FcyxY9AMSAyKvm5DRAhEB+9Qf1PRV8vmBpbRorcqwwA/5uTwEROtp4r5FRPPoGyvxbq+ZHdtyuKas7cK+92Rc2fiXx1ZISO/f3sWH/VCLIlZ/fansyqS4tYRI3cdTO/djP0WSf1QtknitHyrleXbQiDfClkW32TlqkDofRduiLu8zRZnh3ux3mdlb38owwRRi3a2J3FZ3T9S8eFKORJ/l7Za6a23ZxkHY0aMQVodVdgM0QlcVkt2fh91U9sgXQ+dnRftIIZ+jRXqXfga9TfPV31lM15vJFDTpniOJH2Q2p/UG2bRoDR740qqYS3SF5hp9jazJRrP13pfO64CDJqpzIJQT7h//PVIDd97PXr4oWfo/9G3kjrW3+43Jf4OfOeAm+/HW0TEj5sDbr5z7YfUPP9e5PDjP8W9Q+nVHfP3TvDw3yRcT0Lv/pAa19fp/+4INdtjZz3MMydf5luKRhl6V3GPlGvEGXuHHz76AoqzotdJKcP7NZiejz+Vwg89UjcvvJ+tTqLXSX3G6H0rFfVTUHkLIUvn0psinOMDz/su3KvMtCn+lj2AKPd9I4NjvuXjaKeYi7EAAZIHmNERN6bKtmzfIBbcBHC40U5d960JnAl9FIBVZiqK/F7yjN2WtHKQ6IyjIiMqBCgi6Mh6aBAtEPgoBCvnr5tLLPiNVS72NkJb0YHMEabnox4/irOjHfdWR3HvwGwQf4+yLaln8D0fc9K0IWqJSrWERy2AdQqBkm91TOn+E2mX6e90TAAVuypU7Pm5CH0UgK11ae95YkKbZwVglbbo97Qg0oRlButnHkuyXmHJzTpxi/X1mWJjxpzsne6ELQ+rG71Y8GE3JCaI85PYiouX5pUhtFercF1oRp9a3viET42+exAaY+elW7Ijv0Vv0nWyW03nQTtQstKMlcMExkBfdL82E/eTLN/N+OzROprWfXIxO+NKTu7TTntSPGsW9feer+G9x3+K2/1VYgL0hXcfjovJ3+438b0Pn6HfHRWqY+/ww0dN/CRJrMMb200R4ep+OXrO9/jJ12LnhHjnB99j5G/6cecSqe+/QM373+Gnbjdfjd37pXd4OCqSI6K3kp+6X44K6t/yE1MNP0Qhfn0/wbT9DR7OeK+YK0s+H3U13/qRm2/F7pk6neerfOdvHuaN53/Fb3d8NR5kGvL8ivceeoZnkkR6nvLmxYRWAwQh2WqUalFPfhHig9qYM/FUMTeOQon78joIbLDRntXilsCa64/BAG4gYecMEbgK2jW5gu7O4sKECYDeSFT2mmLKn92GmMkKG3evSREBoyNZAmMyobAixlYFkkVUesfu6zZgOJJhcEgSB5kFiu8+cI+MUlyOmAIpIGtNLuLPc8FFYJUJzgGr2tnbv5pc07O5INS/l/ZzYLXpsz5X8u8baQer30+15Bbh+hJ7Z7MGcuZgkYW2NhdV017WzkDSc7szvNNWHN4uKsZuXWK9vJP3Cy56t9bhDamXiQAAIABJREFUzSBKQh+lmgIglzU4edKUHFw5Z6RMvtMnbtFYFUJpmZ98b7bj3tpK69X2GYieDCuj8efV03yqlaYNTThj/Uy0305PUjAb5IjDyboaE4k5iaDGYrNiSHtHUjOURURlhOzB5Um/xVwH1M6gHaTjJhAEbrIBIlfmm0xjpTWPLa9oZmFcybgauDXS2uN90Uj69wph9lxfkqzCEQFa43qP0De/hXrsHf7H6w/zzEmFNXnRt/jrx1/ge7/+Ld/XfzXzdRY9zNcfgl9dC4E+0bzei103a2GSs6t8ddMzPPzor3hv7Ft8a9FveeP59/jOgZcV2VdSykuId157Ax7/6ZwHiaq/+dd85/nv8Svf9/lqdDLynus9HjY/E32+QspbLOkdbJpFPeeLkK1TTG6o1kNemjVOmurB4e1Cjw/7LFjUfcO9sMqEa0MTnOrCEjwaKcs5Q9Yg1dD7LrhPC+egrrsOreEwzsoC57fZxFEua0eKT2uMQiP8M1ty83/HdlXpox45dvTuroKsWhWVpml3JHmZjsDMgG+4F+19VtxoadtjZu+Go5wtWqlHJ63TIdUSmfpcudpE3JIbDdBel8N6nMHSPROyTq6DAdyrtMVPdpKeW9EfKK12F+wYhs14G+fjCk1EgFltzWSKzxgdcWNa15b4DfOIzKJcX9IYJXDOhHZPkY+QYpmPix2lMB1z0tSRaiEMEbhqxdG9msB0s40AuYJJY+Wr29qOrcPJ6ky+53knuNmOZ3dPyrxSVsizEIm/clRhv6C0aMfSr+bLnjQbSRJudjuYL0QMbYWtcs6NRX2m40piXM9kBFMYEm+5UM/E+yP8jtgM7j1eeNTEC6nnPJ788eHKP1d8SlikE5/74Qc11JiiV8rgYpOZ9xj5N+IzxTe2m5LcZyLX+nqOsswVX+Xrj8P3XnuH7/zoW6h9b/DC+9/hpz9KfqJCylsQaYIpj496RtKXqrIvl1voKsr8noe4b3AXlqAdw5tOuNqr8PmLBM8lD6g+ju7VUndKy+EjAUBP8yEt9mFIn7QkZ32ZG+tPgdynTWnXuVcOUgP8Yj75racKy6SuvlsLe2+yj2IxjDk5fLWVNluA3qtELcV2jo4A59qTB/OU6PzENQIEcNObZVUnt496zOUlEiA0XXzdUVGbNz2pMutIsjgpJvdyLneSzJbjAolb8iIWu4hlOuJvmpjE92KguLSkN4Wxs7hopW0lRPoDKwaHky3dFtTRZfBZD7LMWpZ0V77CSVh1rYcSRgBft4EqRfuI5UaPPJEaS3czEJrzmBR9owOr4XAkzSsk3IlmaeI+u6ix7GmlaYMdn7c5YliqL2S/jwwifToT7ZveDuYJY2dxnTNhLmiColzRmK37z8K4Ep9URH+99+0YRmK51Kc5AVMwt0L9oUoSUjfdT3x6KMV7xPWk5gcUINYfpvLPEp++k+JycytRWvwrfx2x5KfmWp9ReeMBjjmW6jIEd85NtHqmZfJ0Mru++LBHfa8ti4BFEQtIIv2aha5T0LThKK6tiW+F+g/Tu7WOZpKzuDRjp/dIgVlfZkKRwWPWQ17MIxnsd0V0aNPaxEKjxYRrmj6Kc4/vzXZYN4ha8TuqayKBOr2FZn3JFsxbiI/6haO03xcNqJyWUI9ankle9Yjd27HOxeFY7vMCBvpC/LmTcvFnKM/ZMymW4xzXUQZaJU8Ukt9pU9sgXqUF8oIdQzc3XaxXVJqyuHJFJlxamzctB/PRCxa2fHQ40p6K6Ptm4voSjwPK986lpANNDYpNKsNWB16vor6ju4623XSRpk+kqQ3mPtPXbcC1RjnmhHA27oU9NzGL0CILXYfsGBrtWOmNtIM871hksx4i+dZTJt7uIsbV+dEOZrDaOCOy64LMqyyz5z40G+OKb7gXq82LOrYn6UNbaD0TWZ2J9CeRDZuS9pspJKNRlLkR6mPv8ELUXUMNUReWF3hB4Sc+O6h52PwwaaHcSYR456UXeO/xn/LyIohbsLf/hK9n3Xwoct0Xnq/hJ0tyCWQ1lfcU4oqTh6gb0P/wvEPl6w/zzEllqQopb27iwZ+AK62BJyzqFfFNUpijgA2YSTBpb70t0vHEOs4LRyOiR9nQF0Us+L7u3rhAGR2B1m/rSctpsrI5ntc6jUUzWwmIZFTQUrcI0oOG8uMbBlNlcihbYUG8WcRgrnPPQSyLgHlVO673Q1iUu9alppVLTV13U4gs19c1qhM5aaPkzGO7shmvYtfQiNtU6/SCBFc2441mHZoOvu6qiND/doAmQ1MkX3AwNug2w5vtueMsZpsLRyM59/cUeE/FCk82F66ME4OVzTiGm3CO3dy0jVlXiC4kXOV6FasBof4mqobtcCQ9pWO+IPCM4qsgt4tIQKOpLf9kKULCTz5bu0/amCjGIgtt65puQZ7sBNlXb5QGJIWP+NhoYvWrwM3iMmZzKjJOwDfcC+eIBJDm7UOz/A5FW9TnQTu44KIXLY5pvqPJm/EVQZbgahcm3JjThWy0bmcne9AsjCtjTg4fsVKX1B/GYh6caK8mjCFKof7/s3fv4VHWd/7/n4kkITEEkoFUiAdCEYxiDGQQIYhtsInYaloPXy0G7EZ03bVNoi2XWkjagnTt2pYk2+26FLNVg7U/qzVYtaE1VSRByIghctRI0BqQkEkQMXLM/P6453zK5EAy4OtxXV7yyn2Ye+6Zuedzf+73/RnrRy0wMTuk13vgGurP/CtZzhFdZvLwn+vces/9lKzY9a6n2HfEF6Me3buR/Af+Ncs1l/cNoVPuq+N/yfKYxzGfoybd9M1fUnfBb8jyKDnxvSow5b7/5btZ/+r2vNzq431Gjdlon8/Peq7+Lhv/zTihqPN6A4ayvYG5fkHUvYHhfenc1aP+NE03Luhhnaeb/7N6ny9Dr0ZYIOmF5faxkAdo8/zx02uev7q8jw1ZP5fe26pZtoygwwE6e1aCfKl5vO7XL3MrWTCkF+SzfJHrF1X93ZDnGD98cPtHHZfr+8E+bnT+6l72KvqUIPVNeqHFXieebr/yY2a588TVSnUzVD3l2dBw9cidhhvQ7Jf1e16n8X7MKvVtpgb+cvasw3d+BgdTRjb5FPiO5BGg7MJ0YyklhblGo9CrEdO61/P2dbelAl+Kdzs++b+l1v5jLyH02kLgk0yrfeg3fz1z7q+P6cbyvv8arV/Bbib1Zh91a+JdAWrV/VzlSk6nuMJCcWMZ5kUFmJ/qeejMfl0FdmzLLEcnRxNlZjMFAY6noQx16q9HHfA6RofH+6B/x3XjGJG/up+fcrcx7csJcKLrcb9I4CqBnhnvp/5+rzh+3MvnmWcUU/NREblP+b/HoeeR6lxO082k/njXm3szRlIJLtQfDvK8mdTvmu6ro+6+HlaT/n3q6np6tCDblPwtflkX+Bn35rFC2l5/nDfDeD1ckB6x2sYFQevkAtfHel/6C7Fx4d3InVVCTa8bJN43uGZR0stx3vsl5LF8ffndnx6X3u2X6ldbAu9L+89fe/4iqe9juNcv+pWxgJJZuSy/vghWZ/up1bXf+FMQJnVjvWBckaj0/LVEf/N5fQHnrw7wO41BfkDM93Ktn1+59fiy9rrvI4QeuYBjjnvJ8vou6GnoxPTbS+B6r3V7NSI8blhbmmIfTcL9Hgors5fWwCPGejx/AyHIF2vQ59Tbk5V0FpRmkeusPQ/O+YNh7jfDLnI/UfJcR6j732mhWymb45gXaESSjAWUkOtn9CDPG8WN92k+la/Mds7lagBYSbndQuWzZszm/g992epTjhfsZlJ/Aw7kU1mR7ju9x2EDi7FYjF8HLTAH+mGiEGqXA9SAu/aj9y86228WbSzDbC7web5Be1xD7VEPm/dBPxvajt9bGZCTJIvx3Nx6uL2Pya77Brx+LXoIpBdajDH1HSdljvaLfeAB9w679Dn51C1yHDd60Uax9UJbW5vt6NGjXv+12v50X6Yt81cWP9MG/7/W579vy8z8pc0SBtsyVP+1tbU5X7Ot5Zm2le84k21lZqHtxQP+X9/26kJbZmam/b+Vtq3uEw+8aCv0/tuZpofnsLU801ZY3R76+t5Zacv8wYu2Xixxhmi3vfgD+/vA+/mFw/sg6H43tt31nj8dttpWZvbhMQ68aCvMzLRlloew9wboveo939ZyP5/tXtpa7vm+CHrcsNnszyXwcef06uNrNcDaqwtdr/s7K22Z/dwmY5+77Wv7Oo3//O1rf/vB67Pi87kylgm+3j7q03ui3fbiDwptK99pd1tHD+9lj/3i+dkzPgshfh6NJZz7Y0DeT2HzPrDvi5D3Q4Dt6Mvyju31t+xgf78O8PdKf/epuwibzWYL9cyhvb2d+Ph4IiIi3P5q/1GfCT31qA8O15jjfavnPtPZbDaOHDnC6NGjh3pTRESGnr8fABMRoI8DD8ig6lVD/fDhw3R3dzN8+HCvxrqEA5vNxtGjR4mMjCQhIWGoN0dERERE+qFXDXUwGuvHjx+nl4vJIIiIiCA6OlqNdBEREZGzQK8b6iIiIiIicvpFDvUGiIiIiIiILzXURURERETCkBrqIiIiIiJhSA11EREREZEwpIa6iIiIiEgYUkNdRERERCQMqaEuIiIiIhKG1FCX/mksw1xYjXWot0NERETkLHPmNtTbqikyl9HUz9VY1xZhrujdWpoqzBSt9dM0baumqM+N1ibKzEVUt/VpYQnVAL1vwk1ThRmz2Yw5XN5DbdUUBdgW69qiEE7uQvg89PRaBtqGHk8umygzO/ZnqP95bkfw48ogf9aH6D0f2ut8moTD5zzIZyD8WakuDPA950PfXSKn07Bezd1YhnlRVUiz5q+2UJzh/pcmyswFhLa03awSairyMPmZ1PTscuoWVlIe8sqaKDPXkm0pJr2f86bfXgLX51JEDeU32reurZqi65eTWlrjd43WtUXkLqvz+XtWqds6Agi0bChc6+/t/s+i5JVy8pKN1FRhpuCpwHPnmpf7+Ws+lUH2t/G8UoPOM+D2tVA3K5XSXi9o7L+WEF6vwWZdW0TBU56v11CzvlVL3cK7KPfZHisb/l5HfkG538/1QHIeI/q4T3yPYQG0VVN0fUsPM1mpLsyl9toaym8MNl8fjpNAsM9a74+Vp4uxD5bX+04J5TjYK338nPfnWMvCSiyFrlfA+lYtdbOyKXW+/zzfA9WFubQUeL3HAnzHZpVWkv33Ar/7Drzeq734nva7PACttNRnkV2wgSLzcnz2SJDvZhEZWL1rqAM9Nb4cB6NAX1s+B4TGMsyVqT4feuvaInL/7jaP3wNPAeYgjUfA7eCZzoLSJ8g1l/Ww/fYvyoUlLGgDkoMcvJflYl7m+ae6ZblUuf/N/vimG8uxBP2CDqw/y7qkU2yxUNzXpQstWAr9TAjw+oUr60ctUF8V4MTCD8f7p60l4Ht6qLXurYNZJcwOh0a6/YTV+LTUuT6fji/2tg3U1kNdvdmrMWo/0djn9Vm/3kxPr1Sd2Zjf89jSRO1TWZS8ku5sSN/VyxPCqkXe2xhMPnd5/+mpAszN7s87n7sqTEBrD+vq5UmX+4nCgBwr+8P7RKPO+VnLX22huMJCnvcSFWae6OejerN+1AITs32OSQGP5Y73Z4Bjbe87FXo6ITWRt7SEouvNmN33e0YxFksxzu9R94b8jb77zphvGYxz+5NzHf3QWEvVrGxqMvLIs+Sdccd5kbNJHxrqVRSYe/76yi/ow9YE4nXgaaowU9Dc+zN6043l1FAUuLFub2RQWoPFrXdnYBrKAXh/sXo1TELu1TvtAveGgb8e9Z5O6IZG6966ge+9Ey9er31jGeZK459Nzy4ndbWFcvf3dFs1RdfXGv92ftabKDM/QWqwBmuQBrh17RNULbwLSzIQ4JL8hgozy71PJNyfRV8+e/bnkroQWFhJJQXkVqRSM76WOuqcJxVAj591o7Miu3fHuQE6Vvadq0OgT9vfL74nCa6TE+M9mQI+r7VHp9BAaXya5ZRQE+z9k5xHuSWVMnMBZXO83mvOEzv3v/l7v7fSUp9K9gCfpDetryLr2hrnPvLOfk8kROS0GPQe9f5rovYpyF/tefBvqjDzxPieG2CmG8up3GvmibULfOZtetZopPtbR7BLosYXrOeBK9TtcX6x2r/gs50NE+NLx/f5EbTB7PgSYm0RuXvvGoAeMgcTeX56w86snhYrLc3A+N4t5VH2Y7+K4mjsG9PyqVwNBYuqcP98eL9nvE8QnMu+ksoT17suL/ueSHg1QJy9/O6918uNkyX3RojHdIN3YzDQ9hNg29zf6873YKg9sY1lRqPR35UZv+pY3mOPup+e7LZqli2rI6vUvfDBt4OhpcB+lcjtRMLDR9UULfJz2T/AdlRaiknf10IdqWSPb4G9RplcyT54ehGUvGJx+2wHOglJp9hiFKk07a2D+roQrv4EOib371h55nGcJHjt35BKkwaSlerKKphY6XVMNJE6Eer2toJzirHNPmtwlI55T5iVapxsODTWUjUrlQUDt/E43jeuuiHjuFn3lOMKchYlr/RUVGQ/RqASGZH+GvQe9UCXk/1+Gc3K9vmTde0TVM3qoaeiB+mFFr/1moH+7uTTIPFsTAcUtGbQfpm757V4cDS4rO4N8gANjn7XXc6p7bHmMWBjosdGXOD308BfTWilpR5SC3r3tZFeaMFyu+tqi28Dp4qCyhJqLBbXF1JjGcsoxWIxObN5US5lF3o/pyoKHnEta7xW7vO5auOdV3kaq6luSycvOY9yS57/XlP7ey7fvfe6sQzzIrOfOnvf7W/y2Tb7F6/985u/2oKlAnsjqICiEBp+G9ZXkT8xn2VrrX7mTSXVp9HaQwlIgAZY07NG4zoL95Mst8as/eRyQU/vrQuN/eu19qD3r1g/aoGFdzHbUcyRnMfst4pYPiubml71ehqNo/5c/RmIY2Vv+d7L4naiMauEymtrKfB7r84AbkRjLVWkUunY332+L8VbC08UmqnrqfHZ+LRxEjsxwPTmJygy1/mcALrfT/T0MoyyLXf2k0B3niU+wa969sjZyfMEVRifH8Do3aeEGkseJvtJkIgMnjOjRt3B3lOWv7r3N6IFvxmyzm/95oCVSASrO3RoA/+Nlf7zKd3xcwk1eC9butvldHvvrk+pgONLorc3NQ5+iUyotcehv/5ZlCz1+uLOKPYs78hYQMmsKpavb6I4Iz3gsqYb7yJ/WR1Vjvkaa42G8YVua8/I6+HEromyRVWwsNLzfZZRTOXCKgqWPU3Tje773M/2+/zdRF5BPsvrvdabPJvsWbD87xuw3hi852x2oYU8migz+zthGRjWtUUUNOeTP6uKFtxPsgL3qFo/agGvBpBTgJPsKq+TS8eVhg1/ryPrWvcmYV9vnu3bSaVTP46V/eF5L4u9I8PtmG9dWztAtfCBOU6W0t2zvTHb3xFospfWkP1ILrnm2gDHOaM3PWtWltEQ9/v+qfMt/3LTVGG/eua8mmQv2/Gpu3e9twwBrno6+Fy19fvolHmdSFnfqoVrS+1X6VpowSi1CX6NoodtEZGQ9a6hnlGMn6t0XowP6MCzUv3IcurI566MQA1vr5s73RqTAW+GDMDvDU5P+b8hKz/Uldp7Jkr9HaD3tVAHXpfxs0gd52devBubnjftnS4e+7x+uW8v+sJKLBUpWMN2mK5Qb6i1j84Q8np7OsFyL11pwUq625et97IppM5yi+NSyQKqFpWFOGIRrsb9HN+50+fkw1MttLRBuvNxA22/19/t25LqsV7jcj7N7sv5uUrifF+mU/xKCUXXF1HtaDD4fe9DX0pfWvdCydIF8EhV78rvJqZ6NWjtn719xmO4Tia9e9TdOyZcjRPrWsd6+ng8tN+8XBfiSaVnB0hfj5Wz2TAgPbKOq3yhLzpw5Ti+J0ute+vIGj8QXfappCabSK+wMHttEbnXm6n1Opm3rl3G8omV1Ix/gty9+N7Y2ViGeRFkBzpJbSzzvALkfdXI33dQvesql08n2PrsgCdF1rVFLKPUa/ufoGphCSXNy+3HP6N3P/sVe5+9YyQbemqoi8hACamhPjDDA0KwhmfP27DM4wvEu+E9KHWXfS19ccz97HK4tsZZRmAM02U/AHr1Ajm+qAP08/Wq9MVHHy8Fe+xzt/pn9y+IpgoztXMsFIfDCCT9lHph399Lnp+ZfCotNaQW5vY4golTs71Bn5xH+eoWzIscjd9Qr1gE+6zV0bIPOG2vUeCbSQFIzuOuhcspeKSa2UHrV3tf+pJeWE46VqpD2MpWt9cof3WwojffEw+fHvVghwE/9woAXjeTeu2zZH9lN/74HoP6c6wciF7Q3vdaG2U+qXMG4NjdtoHa+iyyl7qKuGqfynI2NAeKcZXSuDpk/rurQ6h1byqVhemwNsCC41LJotbrRNmlaX0V+QvzqfLTIRR4UAN/30PGVbX81UG6JS5MhUXLqL7K9Rlr3Qslt8+GR4zscVO220mQas5FBk9IDXX3A4TV+ybFUG8mbGuhhTqqAvSQBa1Rd1zGDXAAC0mgL8sgBrRukiZqn8rnLnvNct7SEmqvd5Qg+LtkfvoEvdTf07KOxs0st5rmtmrPsXafMntc7h5qPY0B72FWCTUVqbTUA30duch5M6N7Y8ja9x4ojxuOl7P8ejMtPe7fYI3xvp8wD5T0wkryzU+woc1exuN9k9wgSAllNCefoe5683sMdj6N7hBGtOkVt9dzII6VA8x59W9hJTV+b+Ru7d/nzV1yHuWvQJGjt/tC+zCDp+WkNJ1i+wl4bkUqlsJ00guN90rAk5Xk2WTPWk7tW1by/JwopRdaSG8s691r19ZCC1lku32mmyoKqFpYiSXIMcKUUUxpaRG515eRan8/e57otrLh76lUVqRQXWi2n/xlUbJ0IIqIRCRUvaxRb+Jpe92jB39lEHj1pu9roc5fPXIINeqOId2K6eUBzF3IPVT2xxzg0pemCuOGwHS8Go5rF1B+4dMsr8+nsiL0foq+l76E3ivieZOi18gjHq95FiWvWDx+WKapwkwZ4dFY723Zk3ErZT8as/ZSDo+6ckdjZFaAZULhNpxby0dWyAjwCmZkk0+Vq87dTdP6qjAZc901uolRXmLwOanqxTjq/ap9tpckGOUGjjrcwD8+5N2jDgNz83OvTyqX4nHlbUCOlf3UurcOmrOx2rfKY7+0ZZO1zM9xdCBvenV+TnIxY3wPnb4e4N7WYttHfgnhng4PAQckyKJkdbbPvAVP5VNp6fmzYLqxlJK/51JQ4a9EJoW8CuPEI73CQmqFmQLuCpsfVRP5sujlL5Mata94NwBC+JUyRwOhL71m6YUW+2gNfVh4IAUtfQlSi9pWzRNPQZ29LjR/tfuwcE9TRhVZ9ka8k/0O/7sCHBT9NgpCKX1pfNq44XNpiF8RztrdQPXd/kcBSC+spLawGusAD83VVGGmgNN7M5rfsqPkVFKBKo+h1QLwaShbqS7sy69NAo1llFHs1tCxb1vQspx0FpRmUbXMa3xme/2r93B9Q839Ck/vT6r6IKPYGLHGexvspWfuQ+PV+pTfuHrUU5w1vgzYkLS9fv5t1bjfSzD0x0r7EKj1y8mtyPftxAilwyRAWV3v2O/1qO9Do/g0S7+9hKzra42rSfbXrccx54P9iFFbtdv9NI6SF0uIV3xM9qu7fsZy93qMJxw/IBYSDc8oMlAiQ5/VcQCooaS5ALO5iOpQbxq0N1TzC3r5gfW5wetMYf+yckjOo9xiwWL/z3kwzCimcmIVVZRQ6nUZ1Gi8+GOcEPg9oGYUYwl2UGyrpmhRFVmlpSH0ihhj6WaN9z61aqLMbKbMX0OgrZoi5/sineIBP0Dbx4X2c5PkQHLcMOXZ65xO8ep846qK2UzR2mCXfj3nNZtzaSmooaQvvekZxWSvN9vXY8Z8vb3HtIfGi+nGciyr86la5LbsohZKXhmMqxxVFJjdHzfYKYpxhSfgZ72xzPdY01gWwmvgzbiBNtg2GO91+0gaXu+xpgrH8ymgyv78cpfVUbfsaftQlkPDeK8OftlQQPYf6qm0VJL/VFUfTk6NG2FTV1uwvFJCy6KyPu3fpgp7I9FioXLicnLNbuupX06u2/uzz0PX9lVyHnctrGP5I9XOApLWvd6fAftnKIRyTetbtdTZT9aMmvJK/59x+5U+f9tTWppF1fpAe7qJsuuXg8f3RpDvIREZUCH2qLvGci7PMEGFhbzGMsxul6WDjaNdM76WuoWVAYejcvC+aTXQDV4ta4v8jsXrM5KB/fEtt7f0uj4dgtSoe9S751PpMU6146sphF5r5yVK/z9Qk7+63KNXpG6Zn+cXzELXeBiOfRtoyMH020vgej8jQTjndZUBZJXWUDrOCpg8huuibTalr8Cy680sD/LDP57qgo/L734Vo62FFvtIFgMj0LjDWZS84uckw0+vVsAeUH89YF6XyP0v63spvade1vRCC36v5YTwU+KB1u337wF6Q30fP9jNpP72eT6VFb4N44KnsN8LscDz10Xtz8u6tgizuc738bwl51FaWktusDIax3u9scxehubnOfrZT00VZmobFwS54yNw+YxPWU9PVyYD3GcTbAjGXh8r+3mlynU1Ip10i4Vi+9j9ITXYF1ZiKezvKYdvT66p0EIlZgoqso0a+cH4ZdIeGPdoFJBbCDUVqfYfpnLf9wFGfbHzLpHKKi013v83lnt8Fn2OvQsr/XbSmLyWc1uDcTVwYaXHr3V78DvwgYZnFBkwthBsLc+0FVa3hzLr6fXOSltm5krb1kF4qLB5zn3UXl1oyyw39tTW8sx+7rettpWZ7vuj3fbiDzJtmZn2/8p919xeXWjL/MGLtoHcg+7PSc5Oxns107bynV4tZVsZ4H3Yl8d3PfZW28rMQtuLB/zP215d6PoMeH2+hvy9OojHSu/H7d1r538djv3au3UZx6Vgx21/x6VQjlXGax36/gzt9Xc7jg7Ua0N9AAAgAElEQVTwsbJ/XPsx8L7x+g4Iq+0XObtE2Gw221CfLIiIiIiIiKde1KiLiIiIiMhgUUNdRERERCQMqaEuIiIiIhKG1FAXEREREQlDaqiLiIiIiIQhNdRFRERERMKQGuoiIiIiImFIDXURERERkTCkhrqIiIiISBhSQ11EREREJAypoS4iIiIiEobUUBcRERERCUNqqIuIiIiIhCE11EVEREREwpAa6iIiIiIiYUgNdRERERGRMKSGuoiIiIhIGFJDXUREREQkDKmhLiIiIiIShtRQFxEREREJQ2qoi4iIiIiEoWGhzNTZ2QlAZFwiAN1dysrKysrKysrKysp9zSNj6JF61EVEREREwlBIPerhcuahrKysrKysrKysfDZkYowcjHrURURERETCUEg96uFy5qGsrKysrKysrKx8NuRQqEddRERERCQMqUZdWVlZWVlZWVlZeZCzatRFRERERM5QqlFXVlZWVlZWVlZWHuQcCvWoi4iIiIiEIdWoKysrKysrKysrKw9yVo26iIiIiMgZKmxr1DdadpA1J2vIHl9ZWVlZWVlZWVn5dOVQqEddRERERCQMRdhsNltPM316zPj/UJ95fJmz9dVfk1PZBkB+yaPcnx5e26esrKysrKysrBx6Tkw0cjAhlb4Mhfq6TVw1ddJQb0aY2MZTlbD0Vw+SNxoi44Z6e0RERETkdAvbGvWrpk4avMdreZvGnMMkvPl1Jp4XPmdarvwecIqI2EQi48Jhe5SVlZWVlZWVlfuTQzEgPeqdnZ1s27aNbiKJjo4mI30KsbGxzulffPEF77zzDiNGjeYK84yQ1ul+M2l/HX61kd0PnXD9IcfE5McmMIo9bL+4mSP2P1uvXocVgChM6zKYmArQwZ7FFqzrXItHPTqZjHkJ/tdfPIr4ss+JcS4PHNhDY44VxxbEPz2dtPTePAMT479qpWU/MKY3y4mIiIjImarf46h3dnay671mLs+cyai4YTQ3N9PYtI1pM2bT1bqHbdu2MSx6ODFxI7CdPEp3V2dIZxpZc7IG5szlwB72PBSB6c0cJiR4T4e0rdOJPPwxW662krDuCiZ8xXt9n5FcksPE/zay0Sg/wP6bL2JsVyc07WT3Q+dy/vtXMtYxnQhiYhOdj9+YYyXmuRwyJhnzNyx4n/32+UN7PkfZ+0Ey40d10t0VPmeCysrKysrKysrKfcuDMo661WolfsRIkkYbXb3jx48nOmY4nR3tJCYmcvXVV5P19Ryio2N6td76uk393TTDV4YTw3Gsz+/p4woSSDjPLaV4Po99bx2B4tGkOKbPSybebfrhLYc5MW8sF2TY/5A+kngOcagxtEd/98lfkHnrOlJ/+wB5o/v4FERERETkjNPvGvVPj3zByPhYuruMnvJoICpyB0c6DhB5/oXO+W0njxIxbDiRcYkhnWkMXI16Imlbxxk92Vc0A67SE+f8B/YANghUA/5WPQ0LHAUyAPHYujqJjLNxdA9EXXOO8/lDp7GuLzqJPC+Rzz85Aa/uZ+fF+z32afzR0K4sXPFvj9Jw5ybK73yMtb9dzLfHhM+ZoLKysrKysrKyct9yKE7bqC9dXV39Wn4ga9QBSE9jxvuJ0LiZTbc2sse9hjyYxs00LDiGad10JqY6lj8Z8sOOuCgackYYNfFeL1ToVKMuIiIi8mXT7xp128ljRESbiIxz9ZRHDBtOXHy8x/wRw4afxhr1TuOmUMdNou7Tm/ax/6rLSHHkkecQRQTEuvXspyYSw2fwhW8N+OEPPod5o0lOTXRlziXC/nxHXxOF1Vmz/iF7FjdzhGhnjXr8ZSOIut9K692ZJEzq65lXAhHnqEZdWVlZWVlZWflsyaHUqPe7R33UqFF0HXGVhZw8eZLjx48xJn5sv9Y7cOOof8rHF6/jY7e/xD+XYx+G0fGXCVyw8iN25jTYR30x5kmbBAnzJmB6Y7ezdCXq0RRM81r5+OLX+WLdFUywT3c8RvzTKcSvO+h6sK9MYNqb0Wy5eh0NXtuQFvLTa6PlPRjfh2cvIiIiImemkH6ZtLMz8JlBR/tBdjRuJi0tDVPKBN7ftZ0DH+9l6tSpnGsa55y/qamJiGHDucI8I2zOZE5L/uRdtlzdTsK6DKNUZkDWv4nyO9eTqhp1ZWVlZWVlZeWzIo8MYZyVfveoJ40eQ1pamjGO+rYdREdHM3XqVGJjY+loP8i7jRZOHT8KQMQ5Ufyj5i9E0s2UKVMw2TfUnwGvUR8krc/v50SOidFfGci1TqJo8Xam//tDLAfyFz9I0ZSBXL+IiIiIhJuQetQ/PWb8f6jPPMIyN+30GRHm/PdnuWrih3r7lJWVlZWVlZWVwy4nJho5mNM26kt/DVyN+mnmGE0GtxdiKLdHRERERM4K/a5RV1ZWVlZWVlZWVlbuXQ6lRj1sO383WnYM9SaIiIiIiAwZ1agrKysrKysrKysrD3IOpUY9bHvU6+s2DfUmiIiIiIgMGdWoKysrKysrKysrKw9yVo26iIiIiMgZSjXqysrKysrKysrKyoOcVaMuIiIiInKGUo26cr/zoRf+jd2PXcj5Gx/WL7IqKysrKysrK4eQVaMuX3KfsOGOCFYlJbEqKYnHh69gl9vUXT+P4PHhxvQ/PN/mtWwbG+5wTX/ZMpjbLSIiIqIadeUe8r5Vc2kd9ntmfD89LLYn9PwJb942lu2X1nDvT3J8pu/6eQSvn6jhnsXTiYzbxUvDZ3H4d7v47s3JRMYdY8MdY/nwOnvufJVnvnoHI9Z18E1zuDw/ZWVlZWVl5TM5D1qNekf7Qd74+6u8/vrr1NfX80VXl3Pa/v37+UfNX/hHzV94/fXXsVgsnDxxosd1nik16vtWzWXTb5po/c00GubOpWHuXLZv9Zqp7UW2zPQ3fQc7585l+1YrzQ84pv+YZrfO3cN//TGbZk5jk2P5h1/lsGPiwVdpnPtjmre6rd99uv0xtrst3/jXDs9tO/gqW9zXb3/8w38ppGHuXFr/CKz5nmv6KseVDit7Hjaez6aZ09j0wIsej9v6m2lu8zp0sOdhz+e3b9Vc1/Pz2Xaw/m01mbc+xMqmgC+Bf5ufYHv1EuYsnu5n4kbeX3YTl93hmDaTG9Y/wmd/WU87QGstHz3/CFNvTjYmp8wn58mbaP1Hg/3JPcMzw2+mzvIn/pCUxOPDI3j8jmeMZXH01Lv33m/kpeERHr3yTasfYvqdq6luR0RERMSvYaHMFOzMoKP9IDsaNzMlLQ1TygTe37Wdt+v/wdSpUznXNI64Uae40jyK2NhYuqPieadhI9veric9PT3omcZVUycN+ZlOKDliGLDmexwqf40Z30+ErSvZdO9/8PFr93J+XKLRSM9bRkz5a0y70nv6CACO3LuUmGdfY8avu2l+4GfwRSfdXRB55A32PBaF6dnXmDDG8/G7gcjYOGAT1sqrmfzaa4yK66b5gW/Q/MIMMq5LIjLun2yf+QOOLX6O6dclEXnkDbbkldOc+TNjfUfeYMvtvwTHdPfnl/0zZnwrkdbfTOPjk//F9Hsu9Xr+kUws38JEoHvzf9CwpovIuEQi7dPH3vAjDtz+R/bMr2AC9v31/lqsF/8b0+ON57e/ci6tH5Uy+bVrSKCDPUtvZU9tLhnZrv0bGX2O8SY82tmr16d99yYofZjIsiQeX2asImW9jRuuhO71L9NKGhdPdG0vSckkVLfREZcIzz/L4bwbSHZ7Pklj02BtOx1xiSTt+xwbL7D9f2/mlqM2krp2U/cvl/D3l/Yz/7bzmFS8i4NbL2H93akkr5lP28+M3vo75ri2z3YC4BwiYhPD6v2srKysrKysPDg5FP3uUbe2txEfH+/svk/96iSio6M5dOgQAImm0cTGxgIwLCqKUUkmjh8/zsmTJ4Ou94yqUb/tv0ibYv/3FXOJ5zk+3WbEw5trOXHlj0gJMB0gvvznTBgDYGLiryvs/waSJxDDBqx/DrYvZmN6YB4JGMsnZ8/mxBubjJ7pra9xhAUkX5dkX9/VJMzcwOG3O1zbNrOUCY7pA2nMDOOxNludf2p9swXT/0u3px0cWgPxd37bvu1JxrbXvunRq26a9wANTz5I0RR6pX3PS7BsFu9fa+Oejg7uWbeE1jk3s6E12FJbaA82/fkWXB3gNzDlP+czGoBkJn/rBg6vrbVPTybr/2pIef4O1t1xM+t3rOIbjt55u8vvfJC3n3uAb49BRERExK+QetSDnRl0tu0jMXkckXFGz2AkEBOXQNcJm8/8xw8fdM4fnTAm6JlG1pysIT/TCSXbTgLDRjifP3xm7LQYIx9u3gCbN7B77i899ml8TCLdXTuc80bG+Vs/pL32GpHv/55Nc39gLFf+GpddaZ9+sAs4AbGu5buPn4Bz4oiMS+TQB+8Bm2id+zTu7c+o7FFExiUa23bhbYzq1fPzsz9ihsM5ccbjO6cnMuH2W2lYU8ORb80noe1FDrx/FRPi7T3jbQc5Bpy4dxoN7jvmyquIjHPr6e7j6xMZBeStYsYU++PN+T6X5Y3lw9rdzJ4c65zfub2x52IjjaTETiKjo2DYuZ7Th8dCXjJJXZ1Exp5LBFHYHFc+4hKNZU5+bnwG4hKBHL65bgmrclaQsv55kv2+vsrKysrKyspf1kyMkYMJqaHeF11Hjvj8be/evYDR696T+rpNXDW15/nCzsEPOQY4RtyJv3AGzMwl7dffJt7nhQpxnVfcz4yN9xslJkU/prn6f5iY7H/WIx9tAnIBSDj/QiDwsInxF86ANz7kMFn2Xu0BNmUO8ZuraGubD5tribnjZ67HSZ5ADBDjfuLh2L4BeOjRX70JvO8VABIuSoYrs0nhl1j3AePsE1pb+CzvIkYDo2ffTMKdLbT/DnuPObS3bIFL/9WZvbV/8AJwndtfNvJyThMpD99A65wV7Dq6hDPw3SwiIiJDqN816hHDYrAd76K7y1VDbDt5lLi4OI/5m5qaiBg2nCvnfIPurk66TwQ/0zizatRf5uOCCzg/LpHWl37JiSt/xISLjf0xanYuUY8t45+br/FtkNpr1Dnm6pn1mP7+P2m9Ip2xjjw+jSj2u2rY7TXqhzd8QLe9Br3tjxBffg3xXZ1EXvlN4vkeB174f4z1rkEH57btLLvITw26sT0JE2fT2vyZx+vrsz+OHYVTnjXqxvQsLljyR5o3PMOxx8YyaqP79AsYdQd8/OwbHJpyDQkB9q/11V+TU9lG/uIHud9n/wXOSZnXkXDnPWzadjffnNIJlt+wvfoRvvbHRLq7LuGrD7/A+v/vR1z945l0d63j5TlLSXhyP8lxiXSTyQV5d9D40l1cett5dDf/jpo7XyBl/fNExkG3vUb9n2//N5ETjelvL4OU9Xfbe853U/cvs/jsyf3Mvw3e3DGW1382nUvcRp9598lfUFCbTMlvH+BGwuf9rKysrKysrDw4ORT97lEflWTi80Ouyt2TJ05w/PhxxoxxFd82NzcDcIV5Rsjr3WjZQdacrP5u3uC4DT6dO9deXrKAlNfmufUcf5uMZ7tovH0u7uPYGCUsPa34NT6e+T0+dl/u8S1MGNPp9pfZxHz0SxrmGmuPWvI3V7086Vy28fdsn3krDY+5loha/BwZ1yVB8reZVg1b8n5Awx89t82xjoRvLSJ+5vdc02eWMvmRa0LugU+4MhvylnFs8XOkeE1L+f4W+M00ds91+2Mv1x/QuFuY/8G5PPPVCFYBcANTPljLJUA3cMniDuNG0+HG7CN+t4s7bjvPvnAyWf+3i/q7x/L4nfZtXdfBDR6v1w2M+OA+Hh/+gnN5x/Rdj11iDAtpX1/WilV8NCWXx6PquffHM/v7zERERORLot/jqHd2drLrvWbSLp/KqLhhNDc3c9DaybQZs4nhGPv372fvRx87s/fyZ3oe0nHGP3yGxtvfJMFeChMO++NLkTtf5ZmvPs8F21aTNa6v69vGyls3k/3kd7hiqJ+PsrKysrKy8qDnUMZR73ePemJiImmXT+XdRgunjh8lOjqazFlfJzYuju6uYxw8eJDjx4/z1pu12E4Z46ebksf12Lt+xtaoi4SgaXUVLfmLuHyoN0RERETCVr9r1AFG0cnVs67ymN7ddYzIuEQyrrrG7/LdXcHHxT6jatRP9lDDfbpybBwQ5apZD4P98aXI+z7HxgkiYgON1tNznjL/QSrC5fkoKysrKysrD3oOxWkb9aW/zpQa9ZTvb3He7Dnokr/NtI3fdr7wMkjG3cJ3O24hMm6oN0RERETOZv2uUVdWVlZWVlZWVlZW7l0OpUZ9IIasPi3q6zb1PJOIiIiIyFkqpB71zs7wOPNQVlZWVlZWVlZWPhvySMevYwYRtj3qGy07hnoTRERERESGjGrUlZWVlZWVlZWVlQc5q0ZdREREROQMpRp1ZWVlZWVlZWVl5UHOqlEXERERETlDnRU16tue+QX/UgNgYumvFvGdC8Nr+5SVlZWVlZWVlZXd85emRj190aO8/dyj/DUfHnn5vdO4VSIiIiIig2NYKDMNxZnGVVMn9X756HMg6tywOVNSVlZWVlZWVlZW9pdDEVJDvSednZ1s27aNbiKJjo4mI30KsbGxAHzR1cXb9fUcP36ciHOifKYHstGyg6w5Wb3ajtbWNmanJPf5eYiIiIiIhIuQGurBzgw6OzvZ9V4zl2fOZFTcMJqbm2ls2sa0GbOJ6eokBph97TcBOH74II2NjTS3/JMrzDOCnmlkzcnq9ZmJ7QTYjh8mMm5iSPMrKysrKysrKysrD0UmxsjB9LtG3Wq1Ej9iJEmjxwAwfvx4omOG09nR7jPvsGHDGDVqVEjr7cs46pff+SAl/JnMWx9iZVOvFxcRERERCRv9rlH/9MgXjIyPpburk8i4RKKBqMgdHOk4QOT5F3rMf4wYOj79jIsnjHfOH2j9falR73zj/7ju4DwankwBgq9fWVlZWVlZWVlZeahyKAakRt2frq4u57/379/P7t27iTgnismXpZOYOKLH5VWjLiIiIiJfZv2uUbedPEZEtInIuETn9Ihhw4mLj3fmlK9eSspXL3XWqB/8JEE16srKysrKysrKyl/aPCg16qNGjaLryBFnPnnyJMePH+PceN9e82HDhpGSksKRzz7lC7ced3/6UqM+bpyJun3WXi8nIiIiIhJu+l2jPnrceHY0bsbaugdTygQ+3LWdY12fMTJ2mM/83VHx7DvQTtQ5EZxz8nMiE8YEXH9fatT3H7RqHHVlZWVlZWVlZeWwz6Hod4160ugxpKWlGeOob9tBdHQ0U6dOdY6T3tF+kHff3sipU6eIOCeK+BEJZGRkMGxY8IfuTY36u0/+goJagCn833NTwL4jRERERETOVBE2m83W00yfHjP+P9RnHsrKysrKysrKyspnQ05MNHIw/a5RP136UqMuIiIiInK2CKlHvbMzPM48lJWVlZWVlZWVlc+GPDKGHoVtj/pGy46h3gQRERERkSGjGnVlZWVlZWVlZWXlQc5ndI26iIiIiMiXWb/HUVdWVlZWVlZWVlZW7l0OhXrURURERETCUEg96uFy5qGsrKysrKysrKx8NmRijByMetRFRERERMKQatSVlZWVlZWVlZWVBzmHQj3qIiIiIiJhSDXqysrKysrKysrKyoOcVaMuIiIiInKGUo26srKysrKysrKy8iDnUKhHXUREREQkDEXYbDbbUG+EiIiIiIh4Uo+6iIiIiEgYUkNdRERERCQMqaEuIiIiIhKG1FAXEREREQlDaqiLiIiIiIQhNdRFRERERMKQGuoiIiIiImFIDXURERERkTCkhrqIiIiISBhSQ11EREREJAypoS4iIiIiEobUUBcRERERCUNqqIuIiIiIhCE11EVEREREwpAa6iIiIiIiYUgNdRERERGRMKSGuoiIiIhIGFJDXUREREQkDKmhLiIiIiIShtRQFxEREREJQ2qoi4iIiIiEob431BvLMFc0+ZlgpbrQTFlj3zdKREREROTLblioM1rXFpG79y4shenGHzKyyV9UQNkcC8UZPS3dRJm5gKoQHyurtIbyG02hbpqIiIiIyFkn5Ia6r3SKV+djrqxmQUUewZvV6RRbLBQDRo97Li0Ffhr4bdUUXV9L9lVqpIuIiIjIl1v/atQzFlDCcpattfZioVZa6v1PaXp2OXUL7yIvuV9bJSIiIiJyxuvnzaQm8gryqdvb2uslWz7yaty3VfPEU1mU3J4eZCmj/t1cWE1vTg1ERERERM40/R/1JaPYVbcOGD3mWaSOC75Y3bKncb8V1fpWLXXUsfx6M2azGuMiIiIi8uU2+MMztrXQQhZZs6qodRsZxnRjORaLBYulhpJZwMRUP3XvJvIqLFh6rIkXERERETmzDXxDvbGWKlJJDVRnvq+FOlK5qyCfqko/veZtG6it76kERkRERETk7DbgDXXrRy2wMJtAzWzrRy0wK5WUjGIqJ/reiKobSkVERERE+tlQt64to7rN/S9NPL2sjvw5AZvpbPh7HVnXzsYEpN9eAsuWudbRWEZBjzeUioiIiIic/frYUG+izGxmGQs8er6bKowfNapaVIa/3yx1lLU4x0lPzqN8dSrLry+jiSbKFlWRVVqq3nQRERER+dLrdUPdurYIs/kJUl+xePx6qHVtEQVP5VNpqaFkVhUFfkZt8VvWklFMTWkLBeYCqmaVUBr0F0k1PKOIiIiIfDmE3FBv3VsHTxWQu/cuLJZyr550M7nLoOSVYtIxkVdRSX79cnIr3PrV/Za1GA3v3GV15C/Mh/rlPO02EoyIiIiIyJdVhM1ms/U8WxNl5gJYbaE4w+3PbdUUXb+culkl1HgPmWifRmkN5VdtcP3b3mPeVGGm4ClgYaXHOOyOv+d7P5aIiIiIyJdIiA11X9a1RfZe9PKANeXWtUUso5S79uZSgL1B3liGeVGVTwPdW6CGvIiIiIjIl0GfG+oiIiIiInL6DP4vk4qIiIiISI/UUBcRERERCUNqqIuIiIiIhCE11EVEREREwpAa6iIiIiIiYUgNdRERERGRMKSGuoiIiIhIGFJDXUREREQkDKmhLiIiIiIShtRQFxEREREJQ2qoi4iIiIiEITXURURERETCkBrqIiIiIiJhSA11EREREZEwpIa6iIiIiEgYUkNdRERERCQMqaEuIiIiIhKG1FAXEREREQlDaqiLiIiIiIQhNdRFRERERMKQGuoiIiIiImFIDXURERERkTA0LJSZOjs7AYiMSwSgu0tZWVlZWVlZWVlZua95ZAw9Uo+6iIiIiEgYCqlHPVzOPJSVlZWVlZWVlZXPhkyMkYNRj7qIiIiISBgKqUc9XM48lJWVlZWVlZWVlc+GHAr1qIuIiIiIhCHVqCsrKysrKysrKysPclaNuoiIiIjIGUo16srKysrKysrKysqDnEOhHnURERERkTCkGnVlZWVlZWVlZWXlQc6qURcREREROUOFbY36RssOsuZkDdnjKysrKysrKysrK5+uHAr1qIuIiIiIhKEIm81m62mmT48Z/x/qMw9lr9zyNo05h0l48+tMPG8It6f5ZTKXbwMgK38RFXkTw2P/KCsrKysrKyuHaU5MNHIwYdujXl+3qdfL7FvVyJ4DQONmNv33noHfKPHDyot/3EZ+yaM0PPkgZd8wDfUGiYiIiJwVwrZG/aqpk3q5/D4+/e9zGVWcyKHnPyc+8+LQlw+Xnune5thoIAK+6KS7a6i25wS2U8DRzqHfH8rKysrKysrKZ0gORUgN9Z50dnaybds2uokkOjqajPQpxMbGOqd/8cUXvPPOO4wYNZorzDNCWqf7zaQhOXCUY8WjSaGD5lqI+ZFr0uFXG9n90AnXH3JMTH5sAqPYw/aLmzli/7P16nVYAYjCtC6DiakAHexZbMG6zrV41KOTyZiX4H/9xaOIL/ucGOfywIE9NOZYcWxB/NPTSUsP/an1/Nzd1j9vLJMfPR/H1h3+y+vsvP+4c9b453JImwRwmObCBqy4zf/Ju2y52krCuiuY8JVQHzyZCRfBP/ZbgdDfeCIiIiISXL9r1Ds7O9n1XjNpl09lVNwwmpubOWjtZNqM2XR1fsK2bdsYFj2c6JjhREXaSE9PH+Azk33svKLV2dh2F/XoZDKmtdOY8xkJb36NCQkB1nf4Y48Gquf0wxw5fBEJ9p52o1F+Lue/fyVjuzqhaScNC4Y5szE9ApPj8eyN6Jjnckib5Dt/v55/y9tGA33eWNIqLie+60P2LN7N4Xlmpn0rie636mlYAOe/P4sUoLtrOzuvaIXncrgsw5WPFE9kxn2jaL7PwrEF07nsqt5sj5W1K1bTctujFE0MrzNVZWVlZWVlZeVwzYNSo261WokfMZKk0WMAGD9+PNExw+nsaCcxMZGrr76arK/nEB0d06v1hl6jPo7L3jdjmheNad10pj8dT9RKMzPezzF6vb8ynBiOY32+rzXrCSSc55ZSPJ/HvreOQPFoUhzT5yUT7zb98JbDnJg3lgsy7H9IH0k8hzjU2MfN8RGF6ceX23vQExidHcWJda0cdmzbfSOd2wbjGHkfHKnb48xp60xElTWzpbAJ68Upverpt/5tNdPvNBrp9w/kFQIRERER6X+N+qdHvmBkfCzdXUaNcjQQFbmDIx0HiDz/Quf8tpNHiRg2nMi4xJDONEKtUW/973V8XGbf0Fcb7KUrFja9aiLtvzNJIJG0reOMnuwrmgFX6YlzfQf2ADaITSQyzs/jvVVPwwL3Pvt4bF2dRMbZOLoHoq45x/n8odNY1xedRJ6XyOefnIBX97Pz4v0e+zR+IGq6/dSoR8ZEwKnjdHd9aGxbzliP5SOigB2dHOrqZFRcIqRmMuHRf7D7IRumNy/z//wD5DF5i3k7r40/P/QQK48+yP1XhteZqrKysrKysrJyuOZQDEiNuj9dXV39Wj7UGvWU+3IYm1lPY2sK024+xfaL2xm59WLGgeflgvQ0ZryfaIwIc2sje0j8uXgAAB13SURBVNxryINp3EzDgmOY1k1nYqpj+ZMhP48RF0VDzgijJt7rhTodPvvwOFw8nAQS+HwyWD88hE/t+MXDnTXsfPIuex6KIf6+I1h//i7JFZd7XBHomWrURURERE6HkBrqwc4MbCePERFtIjLO1VMeMWw4cfHxHvNHDBuO7eRRurtC60nOmpMV8pnJ/rePEJN1Ed0tb3PsvnM533160z72X3WZvUa7E0aeQxQREOvWs5+aSAyf+R095fAHn8O80SSnJroy5xJhf76jr4nC+tAB9t98EWO7PmTP4maOEE2Mff3xl40g6n4rrXdnkjCpD2dejhtFiycy/V+8Xo8De4DjHN5uIzI1ie6WtzlQBvHPGT3jYzPj+XjBJ+y/b4KzRv2Q2/Turu3svHo/Mc/lcFmGcWNt8/MJTLv5otC3D4iIgtTUiUN+ZqqsrKysrKysfKZkYowcTL971EeNGkXXEVdZyMmTJzl+/Bhj4sf2a731dZu4auqkEOY8zBe7RzHqPjj8/GG4YLTX9E/5+OJ1fOz2l/jncuzDMDr+MoELVn7EzhxH6YxrdJSEeRMwvbHbWboS9WgKpnmtfHzx63yx7gom2Kc7HiP+6RTi1x10PdhXJjDtzWi2XL2OBq9tSAvl6fUongSa2HTxcfv2TeYyZz18GpMfbWS32/OPf3q6fXoHexa3cuzRyUzLMPZB2tOf0LBgN1tiRjDtW0khPr6VPS3AlQPxXERERETEIaRRXzo7A58ZdLQfZEfjZtLS0jClTOD9Xds58PFepk6dyrmmcc75m5qaiBg2nCvMM8LmTOa05E/eZcvV7SSsyzBKZYZ6e057buPPD/2avTepRl1ZWVlZWVlZOdQ8MoRxVvrdo540egxpaWnGOOrbdhAdHc3UqVOJjY2lo/0g7zZaOHX8KAAR50Txj5q/EEk3U6ZMwWTfUH96PY56mGh9fj8nckyMDnkc8jNdMnn/PofiH/6CTGB2wQOsvCZqqDdKRERE5IzX73HUv/S5aafPiDCuccvDYPuUlZWVlZWVlZXDLocyjvppG/Wlv0KvUR9ijtFkcHshhnJ7REREROSs0O8adWVlZWVlZWVlZWXl3uVQatTDtvN3o2XHUG+CiIiIiMiQUY26srKysrKysrKy8iDnUGrUw7ZHvb5u01BvgoiIiIjIkFGNurKysrKysrKysvIgZ9Woi4iIiIicoVSjrqysrKysrKysrDzIWTXqIiIiIiJnKNWon/XZSnPRN7Buxim+/DXSpoTL9ikHzJ+/SmnZHVxwSwd3TT5dj7eNlbdWUZX9Hd7+txnh9fx99sc7FP37Omz5iyj7hmnotyeMs/Vvq7mu6hxKfvsAN5478Otvf/5OXvjnw9z745n9Xt/W/3mIgtpJ/N9zBaSHyf5TVlZWHoysGnWBrU9h3XwrKa+9xoyNW5ixcQtpU4Z6oyQsNFWReWsVLH6Qhjs9fwV412NJPD48gseHR7Aq6U7q9rlNtPyKVUn26Xc8Q7v3enua3ldjsil/7gG+vnE105dtxDpQ6z2rtFG97Bdct/Ey1j33AN8e4zV58wrf1xOABl5yvt5JrEpK4qXN3vOcHpff+SANi+Ffbn2IlU2D85giImeKYaHMNBRnGllzsob8TCfUvL9yLh/ze6YXDN3+CpQPf/AezMwlIS4xLLZH2cg7/xDBA6dqePmm6YHnZx4/XdJxmrZnGyuXbyN/8YPcf6Xn9PfKklj/3hpu6pjHaO/lLb9iVU4sXztqY1JXJ7seS+KFu9dwy5r5JIUyvd/bH8V3Hn2AiCW/5mfVkwa5Z30dT6zIJeIOG4su7cPy//wdP338JbKK15I7phfL7/0t89Ys5SavKyvWdTeS/0Y6v17xCGn2+a1/e5JHzslh3YpsErs66fba/pfnLAVuIiLW+3gwAljCnI4fcqnb43d3+d++yOgoOPEZ3V2dA7N/ryygYXEl05dXMlc968rKyl+STIyRgwmpod6TjvaDvNto4dTxo0RHR5M56+vExsUBsH//ft5rrgPAduoE8fHxTJv5NYZFRQVdZ33dJq6aOinoPEPt8F9/zO7HHLX036Nhjf2fd/yeGd9PB2Dfqrm0Dvs9aeNXs3PFBgCilvyNad8yGfNue5xNRc+5rfVWzt/4MCkAB1+l8fY3Saj+N47lfY8j9jncl/fcBuDKH5FWPp+ErStpuPdp+x83sXPmMt/1O7bvj46FZ2B69udMvMhtGv9F2sQ/urZ98XNMuykRtq6kofIrmFJ/ifWPszFV/wRWfAPrZs/1076Roh+uZ0NuPg3znX/tUec/bmb+O9fxqykv8cM3XgJg+jW7+OnsZNdM1j/x08fvocEeHQ0ZwNkQrkr+Dfn+lt+xgm+uWer2iI/wqyX/ziUAB5+htOx5Zt1yHfV/sq9/zBqq7pmH+0dq1wtJ/HCnPfhM38gTK2bxgtv8N93SwU0H73RuD+TyzRX2f06p5+W8S1zP/e+OJW+g2N6wA+jccCf5O27nmeL5jHRb984/RLDhEq/nv821bd7zW19dR1X2d2jwvrqy709sWXYTUz6Yz2g68bbrHytIeHI/lwDdwCWLa/gg6X/Z9Z/zmZXY0/QGXk7KhfX1MGcWrQAs4WtHHzH2u+VXrMpZQcp6GzdcaX+8x5JYH1XPvT+e6bYVyXy7OIfaf1/Pu9/4Dlf4bKV/nRvuJH/bDTxzXRvzHa99Wg2v5ue4np/7a8oNFN37JNfFfUJN2VjKDtr/vCaC5+3/vOmWDu6e6rZ+52sLmFZRde8tmNjI6iWznMs0lEVQ5rF+xwINPLEi1/mecb5fL13CM9duYf6ffkXWkh9yKcDBZyh/I51fLfkhac4HfI+qKij5bTYm+/53t+uxXA7/bhUpd/81xD3mbiMvJzles0eY8mSw6ZDw5H5uv8Htmu7mFayaY9/nNz9CCkvhXzv4ptltFVO+Q2X2L3ji1TbK57l9zh3lWV+dw19LZ+J9kUBE5GwWUkM92JlBR/tBdjRuZkpaGqaUCby/aztv1/+DqVOncq5pHHGjTnGleRSxsbF0R8XzTsNGtr1dT3p6etAzjaumThryM52e8qib/ocZN8HHZdNo5b+YUZzlnO7oaYoYBqz5Hs2Ln2PGxgoO/6WQ5uOH6O6KNNY3/h4mv3YvCUBk3D/ZPvN7HHjh/zH2uiQiY+OATVjzwPTsa1x2kdFA3nTvKj7Ovpfzj7zBnseiMD37GhPGeG5f98XfY8bG+zn8l0J2/u0qJv/HPEa5TweO1P6E1o9KmfzaNcbjH3mDLXk/ofnZnzFhDPZt/wHNi59j+ms/40jtT2hmlPH8jx2Fzb/kWMEWUphGa95STNV/w/ToNzi0+V7GOmrgY4djAzjxea/2b/eJE2C9h2ej9vPykhh7o/zH/G3q83yDTmcj/cI7bPx0fCfs/hXf/NNvmb1iCZO7OrGdAnbmUp5iLN+54U7Ko0YSGZdo9IyuWcrNgXpGrZ8DL1D+xs08s8LGyK7drHv8Eso37WfZ18+ju6vTaNC1r+GZFfP9TDd6Xl+YUs+r3/Wu4V3Ly7Pty5/jbzqMnLGal2esJjJuF6uX/BLbUVfPpinnYW56YxZ/emced0919dT+Yf8q7v9uIpHAjqoIfti2imdW3E0in/DXX49l5bpMluVMtu/fZta/0Ub+/BlExnk9/442DuddR1Ltjay622h0jvjdLr57czKRcbv44D9gxLoYt57UdEblvUDnB51Ezulp+ggAWue8zJyODm6IS2TXzyN4/WdzmLR4OpFzHuGWJ3fypzk38ua2J7m647dGz/7vLvHtuT33XFJ5j9rmRC6fGOLnNyoKrPcwf0sNLy/pMHqqt45wTv900yJ+2L6GqiXGCZdxj8AiuHc1Ofd0kBu3i9VLZmELdM/A1FW8mmO8Pxzvzz/vvZuC8ZdQsKSDRZ+/apwA3ruaHJP38g1Ursjln9fu5+UZvu/3kTN+TvHWS/hh9Td5OS+JdU/fwYV32LjU/fVrfp+qSZn89Vw/PeGWX7H+vTXc8pNUNt79ErYvOolMcX/8z4AVrE9awXpu4LJtT3L1RMf03dT9yyw+e3I/995mvL9fTloKpT9yfp5eTsp1TW/+HX+Ycg/1H6xldgpGnrOJKR/YjLx+KatyIKUo0ef9d/74ZDa8YeHgNTMZ49z+9wDgnOH2xwuP47+ysrJyf3Mo+l2jbm1vIz4+3jnETOpXJxEdHc2hQ4cASDSNJjY2FoBhUVGMSjJx/PhxTp48GXS9Z1WN+m3/RcZ1SQAkfKvC+W8Akk0kOEMKMTO9F56N6dmfM8HRjTQ2lSg+4uhBIHkCMWzA+ue+7KsO2mo3EJV9tevxk68mYeYGDr/d4Zrtjt97bLvzSgDAzFIuuALiL5xB1OIfMdG9E8xhTDZlT/rWQIdkzBru//p5xr9Nc8ga8wJ12z4BoHPnSzSMWcPNl9rnnTyHm1lKnfuumFLPMvvyibOfdP4bLuICEzy/7hk/fcYON1B8x3x7D3ky06fcQMPWWvv8DdTthJtzAkzfvZ4XWMKvv+vzYg6AmWSlwQvbG5x/6dz5Ehd8/Rb7tmykbifc5MznGdu2bb3bc7Wy9wP/a29v2QLV9/AOj3HvURv3frAG7r6Ely3Bt+rwh20hT09Z90OjBx245NpH4D/Ws8ueR9/2PHMefontS+7kmTlbmPKf8xntd40mUifB3tbgj+tjzBqqbppu/PvSJbzqfI3a2Lz1BaZfke26KjImm6wxL1C/M7THSBxzniuYLuLC3mzX7vU8zyN8N8D7HZLJvWMN07f9kideWEx5cg2LLvVchTXgvmjg5ZymIPsSYDo3HLVx71Eb96xLZ/uUO9ng6B7ft56Pqpcw7bbznPPO+N0NrkUt62nFbfq4OVyY9xIfbTC2vX3jS3yWdwOXOC6omRdwWZ7/rTClJMMHn+BZQj+Joicf5O0VxpUCEZEvk37XqHe27SMxeZyzpyMSiIlLoOuEzWf+44cPOuePThgT9EzjTKpRjxgGMMLvdNtJYNiIID1BHexZeivWja79HZU9ypj/YBdwAmLdep6+6AKiIDaR7i5Ie+01It//PZvm/gAwRnS5zK3muPv4CTgnzs/j/5NjGyHm9ki37fkATsGJfZ8TGfdVY9v5zP/zjxkOp7qM1zw6ChhFd9chOAXE+PaU9Xb/RkZFQffnbj2px7B1Ayc+JTJuMm3Wl+DgS8xfcgfubjpmv5JxDnAqUA3tZK57wEbOP3/HT5dE0ABMv3Y/P51hnz78XCDKoyfbY3s+b+efQINbCQQAphvo7urk00M7YczNJHd51wi7nl/w7XPkz7Bxgojhnvvz0tw1TC9rYEfXdC6hgT+/MYPZK+yvr3WbsW1/SuKFP7lt25jbjfcDEBl3rvG3o749r93HTwCPkLlgsrG+xHlklsLrG3bRbf7MWM5jez4lYhgkTJ5Md9e63k8/+gUQ6/H+vPQn9XwwfBatD9cwKzHQ/jmB7RTYjh8mMm5iaO+vEyeg27iyE+kzfRcfHYQLRsW4Lb8bWzc0WDuIjJtsfz0gIuD7e51H6Yr7+xGwX6nxfT0j4xLpPLQTeIEHlriXY8F0+/sdoJt5FF3zLPlvzODXK3J8H//4KTh11Of5vVdm9HZ/M7GT7q7PgCg/Nepu2zPnEb5WGsHbtbuZdXMykR1tfEas2/vHs0a9Y7+x7a8PX/H/t3f/QU3fdxzHn4n80IgKRJxKZaCtv0qxYIEpHL2tCnrM6wp4vakdm6293tat1e5udXS9zR+tXVe7dmvnoWvnrXrbTd05z1O5zTG2wvzVo8gYdrT+QIoVk9QfxYIW9sc3hAQCCaAh6Ovxj33mm3wTMNLkw5sPlLo99lFfv0hbczj2+j0wazXRrtuPMb5menn+8XkrEIapx6+XarVafet0wGbUvWm+cqXbZadOnQKMVXdfhsKM+sDZ+Wj1Ymx3/Y70jUm0NX/IR6sXc6mvp5m1kvSKlbQdfpEjT/2Yut2/8b667SGW8DS4dNYOaZ5PlNB4/2fJA+ck9W7bfIwfnweNC4wZ4K5PfH9ZC/hpUYFzxGECv43snPHu6ty5XcACI2ISiIOet038Ugo0neQTwPc/wX6I+RoZMRN498R3mU4ZZ+Y9yWNgzCQ7V3LjlrazPL6HLwyMI2EqnPRy6rFfTvJ6l6OnJADhTFkNlSfPQVrH6uppHDvziPo5QKqP491dOF0FpHtcVvvCXC4/v45Ra3LY+1U7i7K83fI8pz6EhLwbtcaawCQrlDedp+vfWur4BD9uX8Fv1+dQf38t+7KnARVsLprr971HfSkFmMErRZ4/zNntejFJEJPA+G5HwDrB2+fiCP9bA5eYQLHbpQ1TTJx2jjT15PJHpwGfX0gYm5ACpJBlN37Go/vzzX+2RhtMnU0wfgUSERkMA55RN4WE097a7LEy2H79cywWi8f1q6qqMIUMJy1rvrEyc633dxpDYUa9o0dOTIcz3leeTSHA9Z5WTj+j5TBELJ3kPG409ztn2EdYgFC46rbyNMICXIOrDsyN9TTMSmJCx/niZxBKo8f1zWGhnSvfHvdvZtz8TGwHj/PpgmjnjPpxLh3OZPQqM23Njl6/U0DL550r9a3XgE8xWyJhGNDi9nibDvKDwhLe7eM+3caM+n6OfraC+Thw/OtFdrGOjdnGSu+YOxeQ+teOGeDut2//AhjWw3cy6kuoJZWZk5zNWCbhtlLqnFEvr3uDBZPGGzPg1ZC/dAVWC7Q1T2fuDHjmH/soSF7CmK7nj08ljxyeKU4wfojTy8c3zroIbL19pwXMllGYuqzsdxyff38RubX7iPvkv8zNd58JzzYe2/7N5K9aQVQPn9+MNCtrqxpYmZboeTwrl1jmcuz3BUx/ZBo0bOfYmkXEVRsrzTMXrqMs69fULDJeUNa+kEPDg8WkO1e+ez/unFHfV0JbYipmSy2HVuxh1OaXmep8/Bf+mE/p+8XkvV2Aecp77Mh+kxpvLwAvnOEUiTya1oeV19BQMI80nl/djoeTnpzHa+8fw5Y5zjmjfoxyWx5z7+z4/CYRFwNnWrysBNuqqSePjORpbg1x4W6Pb1Iicez3+vdJfCr55PCHQ092fmfH28cTPgLP7zS5HU9LY9nLJZSdmcODY3E9H3LtdrfzVbBn+ItEesygd7m/sucoXQOxZdnGv4fEVGLJ4cPqImamGcd3FO7qnFF3Hq/c8ygzHx7f7XxTM4sozX6R8kJjZr3mZyaqd3qfUW9sspGRFkeUx8d3iNcK/8w7Uzt3s/Hr71utVquDvP0x4BX1yGgrn33auVPy9WvXaG1tJSam82fz6+rqAJh1X3q32/ek4mgNGVkZA314ATF6wTIiHvg+hzp2T0n7ofHDmz5vmcTdmx7h0BMPOHcueYQ7Nj3C2ScWc+TMr0hf4uv2f+PsnG9z1u2SiE3vMTnGv5Ws0V9/nTtOpXDigY5LMrHufp3JEX1fCbspYlKo32YitwmM3U+KjG3oAKwFrHl6JM//0kSu203yl7azPN7XiU/zh005HHG7JPX+WtZ4zPwuIu7c91hYtMt13H0meHqenY27oz1Hb1y7q6TyaNEBTOtzPI6nzmt0m5l/kvz1c1lY5DxoLWa784W1X6Zlkb8jh18mlrO3y0Lq9Dw7r+yKZknR450Xdjm/dX4Wywrf4dW0DTx1p/ut55BrP8De6OlsWmFcEltiJ2Oi83BaEY+XPEdxdDRlAPnbyHt7Yefss6/jQCxlFEfnGPF8OY93rOoeXs+OwhSy7AXGtpAPv0HiXyZQFn0V7M7dTgCwsfvNMli+ytjGz9/PmQ9RX93JxnMmlnXsxEMeTz+9k/kjO/49jCcnex0Lt0V37swyr5GfpoeDtYCV8/azpGNHF2sxG+flsWqbiTOu3YbmkD8PlmyK5jXn7Tufr6k8tr6cLUUTyP1r52Nynd8viXxreQnZb1aQ2dfdUT7ewfbEx13fzYstsbt23oFUckuKKM4ysQlg9QHyNlexq97tuP0Ae6MnsKmw85Sjtzay5OHxcN8zZK2OpmyKiWpg1OYD3P1gDp92fQxV7/CdA4m8tVWT6CIiHfz6zaQXW4w/vb0zcDgc1H5Qx4x7kom0hFBXV0eTzUFKeibhtNDY2MipM2dd3fX2arW37tie0dtoy02//15357iF+vBbpL78Act+soGVSYG4/xLn9ozG9ov9O5+Nv6zfwlqy2V+UjDWYPp9B0UPh81PLnuFzocTYntFsiTJ++VYP+/q7jr97F0cKh853WtVqtdpXd2zE0psB7/oSFRXFjHuSOV55lNLSUs6fP09KeqZrH/WmpiZaW1v59z8PUlpaSmlpKe8fPeTjrMaMuojcRIkPcWTrQ7D2WWZvqfZ9/cF2oYKnC7fw98xV2gGkR1a+sX4DJZmVLCjcwu4b9mthb5wLf/wFDaxjinMP9aotzzJ7Lby19Uc85fW3Jlfz6trzPJd7q//MkohId36tqDscwfHOQ337tMcv9gn0/ff3N0iqfbSXldSgenzqm9LOfdWdewZBt33ag+zxqtVqdYB6jB+TjTdt15eBGkoz6nLjRWVuZV+284kd6Dvv2A3G4vuq0hdzWPR557atcpuYWMA37QXd/kclIiK+DXhGXa1Wq9VqtVqtVvetAzKjfrNoRl1EREREbmeaUVer1Wq1Wq1WqwPc/syoB+2KesXRmsF+CCIiIiIig0Yz6mq1Wq1Wq9VqdYBbM+oiIiIiIkOUZtTVarVarVar1eoAt2bURURERESGqFtiRr16+0t85wCAledeeYyH4oLr8anVarVarVar1e5928yoJz22gWN/2sD+ZbBu7wc38VGJiIiIiARGiD9XGox3Gl9Jntr324cNg9CRQfNOSa1Wq9VqtVqt9tb+8OuFui8Oh4Pq6mraMBMWFsa9SYmMGDECgKvNzRwrL6e1tRXTsNBux3tScbSGjKyMPj2OhobzZMaO6/fHISIiIiISLPx6od7bOwOHw0HtB3XcM3sOkZYQ6urqqKyqJiU9k/BmB+FA5rxcAFovNVFZWUndyXpm3Zfe6zuNjKyMPr8zab8G7a2XMFvu9Ov6arVarVar1Wr1YDThRvdmwDPqNpuNiFFjiB4bA0B8fDxh4cNx2C90u25ISAiRkZF+nbc/+6jfU/gjfsKfmb34WV6t6vPNRURERESCxoBn1C9eucqYiBG0NTswW6IIA0LNNVyxf4L5jjiP67cQjv3iZe6aHO+6fk/n78+MuuMfb7OgaSFHtsYCvZ9frVar1Wq1Wq0erPbHDZlR96a5udn1342NjZw4cQLTsFCm3Z1EVNQon7fXjLqIiIiI3M4GPKPefr0FU5gVsyXKddwUMhxLRISrY6fMJHbKTNeMetO50ZpRV6vVarVarVbfth2QGfXIyEiar1xx9fXr12ltbWFkRPdV85CQEGJjY7ly+SJX3VbcvenPjPrEiVbe/djW59uJiIiIiASbAc+oj50YT03lYWwNH2GNnczp2v/Q0nyZMSNCul2/LTSCjz+5QOgwE8Ouf4Z5dEyP5+/PjHpjk037qKvVarVarVarg779MeAZ9eixMcyYMcPYR726hrCwMJKTk137pNsvNHH8WAVffPEFpmGhRIwazb333ktISO933ZcZ9eNbX2L5QYBE3v5TIjg/ESIiIiIiQ5Wpvb293deVLrYYfw72Ow+1Wq1Wq9VqtfpW6Kgoo3sz4Bn1m6U/M+oiIiIiIrcKv1bUHY7geOehVqvVarVarVbfCj0mHJ+CdkW94mjNYD8EEREREZFBoxl1tVqtVqvVarU6wD2kZ9RFRERERG5nA95HXa1Wq9VqtVqtVvet/aEVdRERERGRIOTXinqwvPNQq9VqtVqtVqtvhSbc6N5oRV1EREREJAhpRl2tVqvVarVarQ5w+0Mr6iIiIiIiQUgz6mq1Wq1Wq9VqdYBbM+oiIiIiIkOUZtTVarVarVar1eoAtz+0oi4iIiIiEoRM7e3t7YP9IERERERExJNW1EVEREREgpBeqIuIiIiIBCG9UBcRERERCUJ6oS4iIiIiEoT0Ql1EREREJAjphbqIiIiISBDSC3URERERkSCkF+oiIiIiIkHo/7b6HotnBEBRAAAAAElFTkSuQmCC;" vertex="1" parent="1">
                    <mxGeometry x="30" y="440" width="746" height="373" as="geometry"/>
                </mxCell>
                <mxCell id="3" value="" style="shape=image;verticalLabelPosition=bottom;labelBackgroundColor=default;verticalAlign=top;aspect=fixed;imageAspect=0;image=https://image.zhangxinxu.com/image/blog/201209/3d_axes.png;" vertex="1" parent="1">
                    <mxGeometry x="80" y="10" width="368" height="402" as="geometry"/>
                </mxCell>
            </root>
        </mxGraphModel>
    </diagram>
</mxfile>